<mxfile host="app.diagrams.net" modified="2024-05-30T12:44:23.691Z" agent="Mozilla/5.0 (Windows NT 10.0; Win64; x64) AppleWebKit/537.36 (KHTML, like Gecko) Chrome/122.0.0.0 YaBrowser/24.4.0.0 Safari/537.36" etag="iZpY_WJCiI4LfWc9Sgp2" version="24.4.10" type="device">
  <diagram name="Страница — 1" id="F1ax4qMX8IBDbdAMWvcv">
    <mxGraphModel dx="3538" dy="995" grid="1" gridSize="10" guides="1" tooltips="1" connect="1" arrows="1" fold="1" page="1" pageScale="1" pageWidth="827" pageHeight="1169" math="0" shadow="0">
      <root>
        <mxCell id="0" />
        <mxCell id="1" parent="0" />
        <UserObject label="" plantUmlData="{&#xa;  &quot;data&quot;: &quot;@startuml\n\n!define RECTANGLE class\n\nActor Student\nActor Instructor\nActor Admin\n\nrectangle \&quot;Mini Moodle\&quot; {\n    usecase \&quot;View Course Content\&quot; as U1\n    usecase \&quot;Submit Assignments\&quot; as U2\n    usecase \&quot;View Grades\&quot; as U3\n    usecase \&quot;Grade Assignments\&quot; as U4\n    usecase \&quot;Create Course\&quot; as U5\n    usecase \&quot;Update Course\&quot; as U6\n    usecase \&quot;Delete Course\&quot; as U7\n    usecase \&quot;Manage Users\&quot; as U8\n    usecase \&quot;Register\&quot; as U9\n    usecase \&quot;Login\&quot; as U10\n    usecase \&quot;Logout\&quot; as U11\n    usecase \&quot;Manage Enrollments\&quot; as U12\n}\n\nStudent --&gt; U1\nStudent --&gt; U2\nStudent --&gt; U3\nStudent --&gt; U9\nStudent --&gt; U10\nStudent --&gt; U11\nStudent --&gt; U12\n\nInstructor --&gt; U1\nInstructor --&gt; U4\nInstructor --&gt; U5\nInstructor --&gt; U6\nInstructor --&gt; U7\nInstructor --&gt; U10\nInstructor --&gt; U11\nInstructor --&gt; U12\n\nAdmin --&gt; U5\nAdmin --&gt; U6\nAdmin --&gt; U7\nAdmin --&gt; U8\nAdmin --&gt; U10\nAdmin --&gt; U11\nAdmin --&gt; U12\n\nU2 .&gt; U10 : &lt;&lt;include&gt;&gt;\nU5 .&gt; U10 : &lt;&lt;include&gt;&gt;\nU6 .&gt; U10 : &lt;&lt;include&gt;&gt;\nU7 .&gt; U10 : &lt;&lt;include&gt;&gt;\nU11 .&gt; U10 : &lt;&lt;include&gt;&gt;\nU12 .&gt; U10 : &lt;&lt;include&gt;&gt;\n\nU10 &lt;|-- U9 : &lt;&lt;extend&gt;&gt;\n\n@enduml\n&quot;,&#xa;  &quot;format&quot;: &quot;svg&quot;&#xa;}" id="Jk81Rdkdg_P-vW7fp1gQ-4">
          <mxCell style="shape=image;noLabel=1;verticalAlign=top;aspect=fixed;imageAspect=0;image=data:image/svg+xml,PD94bWwgdmVyc2lvbj0iMS4wIiBlbmNvZGluZz0idXMtYXNjaWkiIHN0YW5kYWxvbmU9Im5vIj8+PHN2ZyB4bWxucz0iaHR0cDovL3d3dy53My5vcmcvMjAwMC9zdmciIHhtbG5zOnhsaW5rPSJodHRwOi8vd3d3LnczLm9yZy8xOTk5L3hsaW5rIiBjb250ZW50U3R5bGVUeXBlPSJ0ZXh0L2NzcyIgaGVpZ2h0PSIzNTRweCIgcHJlc2VydmVBc3BlY3RSYXRpbz0ibm9uZSIgc3R5bGU9IndpZHRoOjE5NDhweDtoZWlnaHQ6MzU0cHg7YmFja2dyb3VuZDojRkZGRkZGOyIgdmVyc2lvbj0iMS4xIiB2aWV3Qm94PSIwIDAgMTk0OCAzNTQiIHdpZHRoPSIxOTQ4cHgiIHpvb21BbmRQYW49Im1hZ25pZnkiPjxkZWZzLz48Zz48IS0tY2x1c3RlciBNaW5pIE1vb2RsZS0tPjxnIGlkPSJjbHVzdGVyX01pbmkgTW9vZGxlIj48cmVjdCBmaWxsPSJub25lIiBoZWlnaHQ9IjIwNyIgcng9IjIuNSIgcnk9IjIuNSIgc3R5bGU9InN0cm9rZTojMTgxODE4O3N0cm9rZS13aWR0aDoxLjA7IiB3aWR0aD0iMTkwNyIgeD0iMzUuMTgiIHk9IjE0MS41Ii8+PHRleHQgZmlsbD0iIzAwMDAwMCIgZm9udC1mYW1pbHk9InNhbnMtc2VyaWYiIGZvbnQtc2l6ZT0iMTQiIGZvbnQtd2VpZ2h0PSJib2xkIiBsZW5ndGhBZGp1c3Q9InNwYWNpbmciIHRleHRMZW5ndGg9Ijc3IiB4PSI5NTAuMTgiIHk9IjE1Ni43MzQ0Ij5NaW5pIE1vb2RsZTwvdGV4dD48L2c+PGcgaWQ9ImVsZW1fVTEiPjxlbGxpcHNlIGN4PSI0OTUuMjMwNyIgY3k9IjIxMC45MTAxIiBmaWxsPSIjRjFGMUYxIiByeD0iODUuMDUwNyIgcnk9IjE5LjQxMDEiIHN0eWxlPSJzdHJva2U6IzE4MTgxODtzdHJva2Utd2lkdGg6MC41OyIvPjx0ZXh0IGZpbGw9IiMwMDAwMDAiIGZvbnQtZmFtaWx5PSJzYW5zLXNlcmlmIiBmb250LXNpemU9IjE0IiBsZW5ndGhBZGp1c3Q9InNwYWNpbmciIHRleHRMZW5ndGg9IjEzNCIgeD0iNDI4LjIzMDciIHk9IjIxNC42NTIzIj5WaWV3IENvdXJzZSBDb250ZW50PC90ZXh0PjwvZz48ZyBpZD0iZWxlbV9VMiI+PGVsbGlwc2UgY3g9IjEzNC4wNzM1IiBjeT0iMjEwLjg3ODciIGZpbGw9IiNGMUYxRjEiIHJ4PSI4Mi4zOTM1IiByeT0iMTguODc4NyIgc3R5bGU9InN0cm9rZTojMTgxODE4O3N0cm9rZS13aWR0aDowLjU7Ii8+PHRleHQgZmlsbD0iIzAwMDAwMCIgZm9udC1mYW1pbHk9InNhbnMtc2VyaWYiIGZvbnQtc2l6ZT0iMTQiIGxlbmd0aEFkanVzdD0ic3BhY2luZyIgdGV4dExlbmd0aD0iMTI4IiB4PSI3MC4wNzM1IiB5PSIyMTQuNjIwOSI+U3VibWl0IEFzc2lnbm1lbnRzPC90ZXh0PjwvZz48ZyBpZD0iZWxlbV9VMyI+PGVsbGlwc2UgY3g9IjMxMy4yMzE5IiBjeT0iMjExLjIxMDQiIGZpbGw9IiNGMUYxRjEiIHJ4PSI2MS41NTE5IiByeT0iMTQuNzEwNCIgc3R5bGU9InN0cm9rZTojMTgxODE4O3N0cm9rZS13aWR0aDowLjU7Ii8+PHRleHQgZmlsbD0iIzAwMDAwMCIgZm9udC1mYW1pbHk9InNhbnMtc2VyaWYiIGZvbnQtc2l6ZT0iMTQiIGxlbmd0aEFkanVzdD0ic3BhY2luZyIgdGV4dExlbmd0aD0iNzgiIHg9IjI3NC4yMzE5IiB5PSIyMTQuOTUyNiI+VmlldyBHcmFkZXM8L3RleHQ+PC9nPjxnIGlkPSJlbGVtX1U0Ij48ZWxsaXBzZSBjeD0iMTAxMC4wNzAyIiBjeT0iMjExLjE3OCIgZmlsbD0iI0YxRjFGMSIgcng9Ijc4Ljg5MDIiIHJ5PSIxOC4xNzgiIHN0eWxlPSJzdHJva2U6IzE4MTgxODtzdHJva2Utd2lkdGg6MC41OyIvPjx0ZXh0IGZpbGw9IiMwMDAwMDAiIGZvbnQtZmFtaWx5PSJzYW5zLXNlcmlmIiBmb250LXNpemU9IjE0IiBsZW5ndGhBZGp1c3Q9InNwYWNpbmciIHRleHRMZW5ndGg9IjEyMCIgeD0iOTUwLjA3MDIiIHk9IjIxNC45MjAyIj5HcmFkZSBBc3NpZ25tZW50czwvdGV4dD48L2c+PGcgaWQ9ImVsZW1fVTUiPjxlbGxpcHNlIGN4PSIxNjk2LjM2MzQiIGN5PSIyMTEuMjM2NyIgZmlsbD0iI0YxRjFGMSIgcng9IjY2LjY4MzQiIHJ5PSIxNS43MzY3IiBzdHlsZT0ic3Ryb2tlOiMxODE4MTg7c3Ryb2tlLXdpZHRoOjAuNTsiLz48dGV4dCBmaWxsPSIjMDAwMDAwIiBmb250LWZhbWlseT0ic2Fucy1zZXJpZiIgZm9udC1zaXplPSIxNCIgbGVuZ3RoQWRqdXN0PSJzcGFjaW5nIiB0ZXh0TGVuZ3RoPSI5MSIgeD0iMTY1MC44NjM0IiB5PSIyMTQuOTc4OSI+Q3JlYXRlIENvdXJzZTwvdGV4dD48L2c+PGcgaWQ9ImVsZW1fVTYiPjxlbGxpcHNlIGN4PSIxMzYwLjM2MzQiIGN5PSIyMTEuMjM2NyIgZmlsbD0iI0YxRjFGMSIgcng9IjY2LjY4MzQiIHJ5PSIxNS43MzY3IiBzdHlsZT0ic3Ryb2tlOiMxODE4MTg7c3Ryb2tlLXdpZHRoOjAuNTsiLz48dGV4dCBmaWxsPSIjMDAwMDAwIiBmb250LWZhbWlseT0ic2Fucy1zZXJpZiIgZm9udC1zaXplPSIxNCIgbGVuZ3RoQWRqdXN0PSJzcGFjaW5nIiB0ZXh0TGVuZ3RoPSI5MSIgeD0iMTMxNC44NjM0IiB5PSIyMTQuOTc4OSI+VXBkYXRlIENvdXJzZTwvdGV4dD48L2c+PGcgaWQ9ImVsZW1fVTciPjxlbGxpcHNlIGN4PSIxNTI4LjM2MzQiIGN5PSIyMTEuMjM2NyIgZmlsbD0iI0YxRjFGMSIgcng9IjY2LjY4MzQiIHJ5PSIxNS43MzY3IiBzdHlsZT0ic3Ryb2tlOiMxODE4MTg7c3Ryb2tlLXdpZHRoOjAuNTsiLz48dGV4dCBmaWxsPSIjMDAwMDAwIiBmb250LWZhbWlseT0ic2Fucy1zZXJpZiIgZm9udC1zaXplPSIxNCIgbGVuZ3RoQWRqdXN0PSJzcGFjaW5nIiB0ZXh0TGVuZ3RoPSI5MSIgeD0iMTQ4Mi44NjM0IiB5PSIyMTQuOTc4OSI+RGVsZXRlIENvdXJzZTwvdGV4dD48L2c+PGcgaWQ9ImVsZW1fVTgiPjxlbGxpcHNlIGN4PSIxODYyLjA2NzgiIGN5PSIyMTEuMTc3NiIgZmlsbD0iI0YxRjFGMSIgcng9IjYzLjg4NzgiIHJ5PSIxNS4xNzc2IiBzdHlsZT0ic3Ryb2tlOiMxODE4MTg7c3Ryb2tlLXdpZHRoOjAuNTsiLz48dGV4dCBmaWxsPSIjMDAwMDAwIiBmb250LWZhbWlseT0ic2Fucy1zZXJpZiIgZm9udC1zaXplPSIxNCIgbGVuZ3RoQWRqdXN0PSJzcGFjaW5nIiB0ZXh0TGVuZ3RoPSI4NCIgeD0iMTgyMC4wNjc4IiB5PSIyMTQuOTE5NyI+TWFuYWdlIFVzZXJzPC90ZXh0PjwvZz48ZyBpZD0iZWxlbV9VOSI+PGVsbGlwc2UgY3g9IjYzMS4yNjMzIiBjeT0iMzE5LjA5NTYiIGZpbGw9IiNGMUYxRjEiIHJ4PSI1MS4wODMzIiByeT0iMTMuNTk1NiIgc3R5bGU9InN0cm9rZTojMTgxODE4O3N0cm9rZS13aWR0aDowLjU7Ii8+PHRleHQgZmlsbD0iIzAwMDAwMCIgZm9udC1mYW1pbHk9InNhbnMtc2VyaWYiIGZvbnQtc2l6ZT0iMTQiIGxlbmd0aEFkanVzdD0ic3BhY2luZyIgdGV4dExlbmd0aD0iNTYiIHg9IjYwMy4yNjMzIiB5PSIzMjIuODM3NyI+UmVnaXN0ZXI8L3RleHQ+PC9nPjxnIGlkPSJlbGVtX1UxMCI+PGVsbGlwc2UgY3g9IjExNjAuNDE0IiBjeT0iMjExLjA5NTYiIGZpbGw9IiNGMUYxRjEiIHJ4PSIzNi4yMzQiIHJ5PSIxMy41OTU2IiBzdHlsZT0ic3Ryb2tlOiMxODE4MTg7c3Ryb2tlLXdpZHRoOjAuNTsiLz48dGV4dCBmaWxsPSIjMDAwMDAwIiBmb250LWZhbWlseT0ic2Fucy1zZXJpZiIgZm9udC1zaXplPSIxNCIgbGVuZ3RoQWRqdXN0PSJzcGFjaW5nIiB0ZXh0TGVuZ3RoPSIzNSIgeD0iMTE0Mi45MTQiIHk9IjIxNC44Mzc3Ij5Mb2dpbjwvdGV4dD48L2c+PGcgaWQ9ImVsZW1fVTExIj48ZWxsaXBzZSBjeD0iNjU2LjM2MzgiIGN5PSIyMTEuMDk1NiIgZmlsbD0iI0YxRjFGMSIgcng9IjQxLjE4MzgiIHJ5PSIxMy41OTU2IiBzdHlsZT0ic3Ryb2tlOiMxODE4MTg7c3Ryb2tlLXdpZHRoOjAuNTsiLz48dGV4dCBmaWxsPSIjMDAwMDAwIiBmb250LWZhbWlseT0ic2Fucy1zZXJpZiIgZm9udC1zaXplPSIxNCIgbGVuZ3RoQWRqdXN0PSJzcGFjaW5nIiB0ZXh0TGVuZ3RoPSI0MiIgeD0iNjM1LjM2MzgiIHk9IjIxNC44Mzc3Ij5Mb2dvdXQ8L3RleHQ+PC9nPjxnIGlkPSJlbGVtX1UxMiI+PGVsbGlwc2UgY3g9IjgxNC4xMzMiIGN5PSIyMTAuNzkwNiIgZmlsbD0iI0YxRjFGMSIgcng9IjgxLjk1MyIgcnk9IjE4Ljc5MDYiIHN0eWxlPSJzdHJva2U6IzE4MTgxODtzdHJva2Utd2lkdGg6MC41OyIvPjx0ZXh0IGZpbGw9IiMwMDAwMDAiIGZvbnQtZmFtaWx5PSJzYW5zLXNlcmlmIiBmb250LXNpemU9IjE0IiBsZW5ndGhBZGp1c3Q9InNwYWNpbmciIHRleHRMZW5ndGg9IjEyNyIgeD0iNzUwLjYzMyIgeT0iMjE0LjUzMjgiPk1hbmFnZSBFbnJvbGxtZW50czwvdGV4dD48L2c+PCEtLWVudGl0eSBTdHVkZW50LS0+PGcgaWQ9ImVsZW1fU3R1ZGVudCI+PGVsbGlwc2UgY3g9IjQ5NS4xOCIgY3k9IjE0IiBmaWxsPSIjRjFGMUYxIiByeD0iOCIgcnk9IjgiIHN0eWxlPSJzdHJva2U6IzE4MTgxODtzdHJva2Utd2lkdGg6MC41OyIvPjxwYXRoIGQ9Ik00OTUuMTgsMjIgTDQ5NS4xOCw0OSBNNDgyLjE4LDMwIEw1MDguMTgsMzAgTTQ5NS4xOCw0OSBMNDgyLjE4LDY0IE00OTUuMTgsNDkgTDUwOC4xOCw2NCAiIGZpbGw9Im5vbmUiIHN0eWxlPSJzdHJva2U6IzE4MTgxODtzdHJva2Utd2lkdGg6MC41OyIvPjx0ZXh0IGZpbGw9IiMwMDAwMDAiIGZvbnQtZmFtaWx5PSJzYW5zLXNlcmlmIiBmb250LXNpemU9IjE0IiBsZW5ndGhBZGp1c3Q9InNwYWNpbmciIHRleHRMZW5ndGg9IjQ5IiB4PSI0NzAuNjgiIHk9Ijc4LjczNDQiPlN0dWRlbnQ8L3RleHQ+PC9nPjwhLS1lbnRpdHkgSW5zdHJ1Y3Rvci0tPjxnIGlkPSJlbGVtX0luc3RydWN0b3IiPjxlbGxpcHNlIGN4PSIxMTQ2LjE4IiBjeT0iMTQiIGZpbGw9IiNGMUYxRjEiIHJ4PSI4IiByeT0iOCIgc3R5bGU9InN0cm9rZTojMTgxODE4O3N0cm9rZS13aWR0aDowLjU7Ii8+PHBhdGggZD0iTTExNDYuMTgsMjIgTDExNDYuMTgsNDkgTTExMzMuMTgsMzAgTDExNTkuMTgsMzAgTTExNDYuMTgsNDkgTDExMzMuMTgsNjQgTTExNDYuMTgsNDkgTDExNTkuMTgsNjQgIiBmaWxsPSJub25lIiBzdHlsZT0ic3Ryb2tlOiMxODE4MTg7c3Ryb2tlLXdpZHRoOjAuNTsiLz48dGV4dCBmaWxsPSIjMDAwMDAwIiBmb250LWZhbWlseT0ic2Fucy1zZXJpZiIgZm9udC1zaXplPSIxNCIgbGVuZ3RoQWRqdXN0PSJzcGFjaW5nIiB0ZXh0TGVuZ3RoPSI3MCIgeD0iMTExMS4xOCIgeT0iNzguNzM0NCI+SW5zdHJ1Y3RvcjwvdGV4dD48L2c+PCEtLWVudGl0eSBBZG1pbi0tPjxnIGlkPSJlbGVtX0FkbWluIj48ZWxsaXBzZSBjeD0iMTU5Ny4xOCIgY3k9IjE0IiBmaWxsPSIjRjFGMUYxIiByeD0iOCIgcnk9IjgiIHN0eWxlPSJzdHJva2U6IzE4MTgxODtzdHJva2Utd2lkdGg6MC41OyIvPjxwYXRoIGQ9Ik0xNTk3LjE4LDIyIEwxNTk3LjE4LDQ5IE0xNTg0LjE4LDMwIEwxNjEwLjE4LDMwIE0xNTk3LjE4LDQ5IEwxNTg0LjE4LDY0IE0xNTk3LjE4LDQ5IEwxNjEwLjE4LDY0ICIgZmlsbD0ibm9uZSIgc3R5bGU9InN0cm9rZTojMTgxODE4O3N0cm9rZS13aWR0aDowLjU7Ii8+PHRleHQgZmlsbD0iIzAwMDAwMCIgZm9udC1mYW1pbHk9InNhbnMtc2VyaWYiIGZvbnQtc2l6ZT0iMTQiIGxlbmd0aEFkanVzdD0ic3BhY2luZyIgdGV4dExlbmd0aD0iMzYiIHg9IjE1NzkuMTgiIHk9Ijc4LjczNDQiPkFkbWluPC90ZXh0PjwvZz48IS0tbGluayBTdHVkZW50IHRvIFUxLS0+PGcgaWQ9ImxpbmtfU3R1ZGVudF9VMSI+PHBhdGggZD0iTTQ5NS4xOCw4MC44NCBDNDk1LjE4LDExNS4wNCA0OTUuMTgsMTU4LjU2IDQ5NS4xOCwxODUuMjYgIiBmaWxsPSJub25lIiBpZD0iU3R1ZGVudC10by1VMSIgc3R5bGU9InN0cm9rZTojMTgxODE4O3N0cm9rZS13aWR0aDoxLjA7Ii8+PHBvbHlnb24gZmlsbD0iIzE4MTgxOCIgcG9pbnRzPSI0OTUuMTgsMTkxLjI2LDQ5OS4xOCwxODIuMjYsNDk1LjE4LDE4Ni4yNiw0OTEuMTgsMTgyLjI2LDQ5NS4xOCwxOTEuMjYiIHN0eWxlPSJzdHJva2U6IzE4MTgxODtzdHJva2Utd2lkdGg6MS4wOyIvPjwvZz48IS0tbGluayBTdHVkZW50IHRvIFUyLS0+PGcgaWQ9ImxpbmtfU3R1ZGVudF9VMiI+PHBhdGggZD0iTTQ3MC4zNSw0OS42NiBDNDIyLjY0LDYxLjE1IDMxNS42OCw4OS44NSAyMzQuMTgsMTMzLjUgQzIwMy41NCwxNDkuOTEgMTc2Ljg4NDQsMTcxLjQ3NSAxNTcuNjc0NCwxODguNDY1ICIgZmlsbD0ibm9uZSIgaWQ9IlN0dWRlbnQtdG8tVTIiIHN0eWxlPSJzdHJva2U6IzE4MTgxODtzdHJva2Utd2lkdGg6MS4wOyIvPjxwb2x5Z29uIGZpbGw9IiMxODE4MTgiIHBvaW50cz0iMTUzLjE4LDE5Mi40NCwxNjIuNTcxNiwxODkuNDczOCwxNTYuOTI1MywxODkuMTI3NSwxNTcuMjcxNiwxODMuNDgxMywxNTMuMTgsMTkyLjQ0IiBzdHlsZT0ic3Ryb2tlOiMxODE4MTg7c3Ryb2tlLXdpZHRoOjEuMDsiLz48L2c+PCEtLWxpbmsgU3R1ZGVudCB0byBVMy0tPjxnIGlkPSJsaW5rX1N0dWRlbnRfVTMiPjxwYXRoIGQ9Ik00NzAuNiw2NS4wNSBDNDQ5Ljc4LDgzIDQxOS4yNCwxMDkuNjMgMzkzLjE4LDEzMy41IEMzNjkuMzgsMTU1LjMxIDM0Ni42NTI3LDE3Ny4yNDggMzMwLjg5MjcsMTkyLjYzOCAiIGZpbGw9Im5vbmUiIGlkPSJTdHVkZW50LXRvLVUzIiBzdHlsZT0ic3Ryb2tlOiMxODE4MTg7c3Ryb2tlLXdpZHRoOjEuMDsiLz48cG9seWdvbiBmaWxsPSIjMTgxODE4IiBwb2ludHM9IjMyNi42LDE5Ni44MywzMzUuODMzNywxOTMuNDAzOSwzMzAuMTc3MywxOTMuMzM2NywzMzAuMjQ0NSwxODcuNjgwMywzMjYuNiwxOTYuODMiIHN0eWxlPSJzdHJva2U6IzE4MTgxODtzdHJva2Utd2lkdGg6MS4wOyIvPjwvZz48IS0tbGluayBTdHVkZW50IHRvIFU5LS0+PGcgaWQ9ImxpbmtfU3R1ZGVudF9VOSI+PHBhdGggZD0iTTQ3MC41Nyw0NC44MyBDMzgzLjI0LDQ4LjM2IDkwLjUyLDY1LjE3IDM0LjE4LDEzMy41IEM2Ljc2LDE2Ni43NiA2LDE5Ny44OCAzNC4xOCwyMzAuNSBDMTA0LjczLDMxMi4xNCA0NDIuMzEsMzE5LjA2OTIgNTczLjgzLDMxOC42NDkyICIgZmlsbD0ibm9uZSIgaWQ9IlN0dWRlbnQtdG8tVTkiIHN0eWxlPSJzdHJva2U6IzE4MTgxODtzdHJva2Utd2lkdGg6MS4wOyIvPjxwb2x5Z29uIGZpbGw9IiMxODE4MTgiIHBvaW50cz0iNTc5LjgzLDMxOC42Myw1NzAuODE3MywzMTQuNjU4OCw1NzQuODMsMzE4LjY0Niw1NzAuODQyOCwzMjIuNjU4Nyw1NzkuODMsMzE4LjYzIiBzdHlsZT0ic3Ryb2tlOiMxODE4MTg7c3Ryb2tlLXdpZHRoOjEuMDsiLz48L2c+PCEtLWxpbmsgU3R1ZGVudCB0byBVMTAtLT48ZyBpZD0ibGlua19TdHVkZW50X1UxMCI+PHBhdGggZD0iTTUxOS43MSw0NS4yMSBDNjQ3Ljc2LDUxLjYzIDEyMzQuNTEsODIuNDkgMTI2MC4xOCwxMTAuNSBDMTI5MS42MywxNDQuOCAxMjI2Ljc3MjYsMTgwLjUwOCAxMTg4LjQzMjYsMTk3LjkyOCAiIGZpbGw9Im5vbmUiIGlkPSJTdHVkZW50LXRvLVUxMCIgc3R5bGU9InN0cm9rZTojMTgxODE4O3N0cm9rZS13aWR0aDoxLjA7Ii8+PHBvbHlnb24gZmlsbD0iIzE4MTgxOCIgcG9pbnRzPSIxMTgyLjk3LDIwMC40MSwxMTkyLjgxODUsMjAwLjMyODgsMTE4Ny41MjIyLDE5OC4zNDE3LDExODkuNTA5MiwxOTMuMDQ1MywxMTgyLjk3LDIwMC40MSIgc3R5bGU9InN0cm9rZTojMTgxODE4O3N0cm9rZS13aWR0aDoxLjA7Ii8+PC9nPjwhLS1saW5rIFN0dWRlbnQgdG8gVTExLS0+PGcgaWQ9ImxpbmtfU3R1ZGVudF9VMTEiPjxwYXRoIGQ9Ik01MTkuNzYsNjIuOTUgQzU0MS40Nyw4MC4yMyA1NzMuNDIsMTA3LjAzIDU5OC4xOCwxMzMuNSBDNjE3Ljg4LDE1NC41NiA2MzQuMDY5NCwxNzcuMTI2MiA2NDQuNjg5NCwxOTIuNzY2MiAiIGZpbGw9Im5vbmUiIGlkPSJTdHVkZW50LXRvLVUxMSIgc3R5bGU9InN0cm9rZTojMTgxODE4O3N0cm9rZS13aWR0aDoxLjA7Ii8+PHBvbHlnb24gZmlsbD0iIzE4MTgxOCIgcG9pbnRzPSI2NDguMDYsMTk3LjczLDY0Ni4zMTM0LDE4OC4wMzczLDY0NS4yNTEyLDE5My41OTM1LDYzOS42OTUsMTkyLjUzMTMsNjQ4LjA2LDE5Ny43MyIgc3R5bGU9InN0cm9rZTojMTgxODE4O3N0cm9rZS13aWR0aDoxLjA7Ii8+PC9nPjwhLS1saW5rIFN0dWRlbnQgdG8gVTEyLS0+PGcgaWQ9ImxpbmtfU3R1ZGVudF9VMTIiPjxwYXRoIGQ9Ik01MTkuODMsNDYuNiBDNTY0LjAxLDUyLjIgNjU4LjMyLDY4LjQ3IDcyNS4xOCwxMTAuNSBDNzU5LjEzLDEzMS44NCA3ODQuNDg4NywxNjQuODAzMiA3OTkuNTM4NywxODcuMTUzMiAiIGZpbGw9Im5vbmUiIGlkPSJTdHVkZW50LXRvLVUxMiIgc3R5bGU9InN0cm9rZTojMTgxODE4O3N0cm9rZS13aWR0aDoxLjA7Ii8+PHBvbHlnb24gZmlsbD0iIzE4MTgxOCIgcG9pbnRzPSI4MDIuODksMTkyLjEzLDgwMS4xODEsMTgyLjQzMDYsODAwLjA5NzMsMTg3Ljk4MjYsNzk0LjU0NTIsMTg2Ljg5ODksODAyLjg5LDE5Mi4xMyIgc3R5bGU9InN0cm9rZTojMTgxODE4O3N0cm9rZS13aWR0aDoxLjA7Ii8+PC9nPjwhLS1saW5rIEluc3RydWN0b3IgdG8gVTEtLT48ZyBpZD0ibGlua19JbnN0cnVjdG9yX1UxIj48cGF0aCBkPSJNMTExMS4xNSw0NC45IEMxMDI4LjQ4LDQ3LjgyIDgxNS41LDYwLjA2IDY0Ni4xOCwxMTAuNSBDNTkyLjkzLDEyNi4zNyA1NDUuNTk5NywxNjMuODU3MiA1MTguNjk5NywxODcuOTQ3MiAiIGZpbGw9Im5vbmUiIGlkPSJJbnN0cnVjdG9yLXRvLVUxIiBzdHlsZT0ic3Ryb2tlOiMxODE4MTg7c3Ryb2tlLXdpZHRoOjEuMDsiLz48cG9seWdvbiBmaWxsPSIjMTgxODE4IiBwb2ludHM9IjUxNC4yMywxOTEuOTUsNTIzLjYwMywxODguOTI1Niw1MTcuOTU0NywxODguNjE0NCw1MTguMjY2LDE4Mi45NjYxLDUxNC4yMywxOTEuOTUiIHN0eWxlPSJzdHJva2U6IzE4MTgxODtzdHJva2Utd2lkdGg6MS4wOyIvPjwvZz48IS0tbGluayBJbnN0cnVjdG9yIHRvIFU0LS0+PGcgaWQ9ImxpbmtfSW5zdHJ1Y3Rvcl9VNCI+PHBhdGggZD0iTTExMTAuOTgsNDguMTMgQzEwNzQuMjQsNTQuNTIgMTAxOC40Miw3MC41OSA5OTIuMTgsMTEwLjUgQzk3NS42LDEzNS43MyA5ODYuNjcxMSwxNjYuNjM2NyA5OTcuNTMxMSwxODcuNzA2NyAiIGZpbGw9Im5vbmUiIGlkPSJJbnN0cnVjdG9yLXRvLVU0IiBzdHlsZT0ic3Ryb2tlOiMxODE4MTg7c3Ryb2tlLXdpZHRoOjEuMDsiLz48cG9seWdvbiBmaWxsPSIjMTgxODE4IiBwb2ludHM9IjEwMDAuMjgsMTkzLjA0LDk5OS43MTIyLDE4My4yMDc1LDk5Ny45ODkzLDE4OC41OTU2LDk5Mi42MDEyLDE4Ni44NzI3LDEwMDAuMjgsMTkzLjA0IiBzdHlsZT0ic3Ryb2tlOiMxODE4MTg7c3Ryb2tlLXdpZHRoOjEuMDsiLz48L2c+PCEtLWxpbmsgSW5zdHJ1Y3RvciB0byBVNS0tPjxnIGlkPSJsaW5rX0luc3RydWN0b3JfVTUiPjxwYXRoIGQ9Ik0xMTgxLjQxLDQzLjU0IEMxMjU3LjcsNDMuNzggMTQ0Mi41Myw1MS4wMSAxNTgyLjE4LDExMC41IEMxNjI2Ljg5LDEyOS41NSAxNjYyLjcxOTYsMTY4LjM4NzEgMTY4MS4yNTk2LDE5MS4wMzcxICIgZmlsbD0ibm9uZSIgaWQ9Ikluc3RydWN0b3ItdG8tVTUiIHN0eWxlPSJzdHJva2U6IzE4MTgxODtzdHJva2Utd2lkdGg6MS4wOyIvPjxwb2x5Z29uIGZpbGw9IiMxODE4MTgiIHBvaW50cz0iMTY4NS4wNiwxOTUuNjgsMTY4Mi40NTQ2LDE4Ni4xODIsMTY4MS44OTMsMTkxLjgxMDksMTY3Ni4yNjQxLDE5MS4yNDkyLDE2ODUuMDYsMTk1LjY4IiBzdHlsZT0ic3Ryb2tlOiMxODE4MTg7c3Ryb2tlLXdpZHRoOjEuMDsiLz48L2c+PCEtLWxpbmsgSW5zdHJ1Y3RvciB0byBVNi0tPjxnIGlkPSJsaW5rX0luc3RydWN0b3JfVTYiPjxwYXRoIGQ9Ik0xMTgxLjMsNDcuNjIgQzEyMjIuMDgsNTMuNjcgMTI4OC43OCw2OS41MiAxMzI4LjE4LDExMC41IEMxMzUwLjk1LDEzNC4xNyAxMzU2Ljk5MTQsMTY4LjEzMzMgMTM1OC44ODE0LDE4OS41MDMzICIgZmlsbD0ibm9uZSIgaWQ9Ikluc3RydWN0b3ItdG8tVTYiIHN0eWxlPSJzdHJva2U6IzE4MTgxODtzdHJva2Utd2lkdGg6MS4wOyIvPjxwb2x5Z29uIGZpbGw9IiMxODE4MTgiIHBvaW50cz0iMTM1OS40MSwxOTUuNDgsMTM2Mi42MDE2LDE4Ni4xNjI2LDEzNTguOTY5NSwxOTAuNDk5NCwxMzU0LjYzMjcsMTg2Ljg2NzQsMTM1OS40MSwxOTUuNDgiIHN0eWxlPSJzdHJva2U6IzE4MTgxODtzdHJva2Utd2lkdGg6MS4wOyIvPjwvZz48IS0tbGluayBJbnN0cnVjdG9yIHRvIFU3LS0+PGcgaWQ9ImxpbmtfSW5zdHJ1Y3Rvcl9VNyI+PHBhdGggZD0iTTExODEuMjMsNDkuMzEgQzEyMzkuMDYsNTkuMTggMTM1Ni43NSw4My45OSAxNDQ0LjE4LDEzMy41IEMxNDczLjM2LDE1MC4wMiAxNDk2Ljg1NjIsMTczLjg0NDYgMTUxMi4wMTYyLDE5MC45OTQ2ICIgZmlsbD0ibm9uZSIgaWQ9Ikluc3RydWN0b3ItdG8tVTciIHN0eWxlPSJzdHJva2U6IzE4MTgxODtzdHJva2Utd2lkdGg6MS4wOyIvPjxwb2x5Z29uIGZpbGw9IiMxODE4MTgiIHBvaW50cz0iMTUxNS45OSwxOTUuNDksMTUxMy4wMjYyLDE4Ni4wOTc3LDE1MTIuNjc4NSwxOTEuNzQzOCwxNTA3LjAzMjMsMTkxLjM5NjEsMTUxNS45OSwxOTUuNDkiIHN0eWxlPSJzdHJva2U6IzE4MTgxODtzdHJva2Utd2lkdGg6MS4wOyIvPjwvZz48IS0tbGluayBJbnN0cnVjdG9yIHRvIFUxMC0tPjxnIGlkPSJsaW5rX0luc3RydWN0b3JfVTEwIj48cGF0aCBkPSJNMTE4MS4yNyw0OCBDMTIxOC4yMyw1NC4yOSAxMjc0LjY3LDcwLjI4IDEzMDEuMTgsMTEwLjUgQzEzMDQuODUsMTE2LjA3IDEzMDUuMTEsMTIwLjEyIDEzMDEuMTgsMTI1LjUgQzEyOTQuMywxMzQuOTIgMTI4Ni43MSwxMjguNDYgMTI3Ni4xOCwxMzMuNSBDMTIzNy4yMywxNTIuMTQgMTIwMC43OTcyLDE3OC40NjM3IDExNzkuNTM3MiwxOTQuODAzNyAiIGZpbGw9Im5vbmUiIGlkPSJJbnN0cnVjdG9yLXRvLVUxMCIgc3R5bGU9InN0cm9rZTojMTgxODE4O3N0cm9rZS13aWR0aDoxLjA7Ii8+PHBvbHlnb24gZmlsbD0iIzE4MTgxOCIgcG9pbnRzPSIxMTc0Ljc4LDE5OC40NiwxMTg0LjM1MzQsMTk2LjE0NywxMTc4Ljc0NDQsMTk1LjQxMzEsMTE3OS40NzgzLDE4OS44MDQsMTE3NC43OCwxOTguNDYiIHN0eWxlPSJzdHJva2U6IzE4MTgxODtzdHJva2Utd2lkdGg6MS4wOyIvPjwvZz48IS0tbGluayBJbnN0cnVjdG9yIHRvIFUxMS0tPjxnIGlkPSJsaW5rX0luc3RydWN0b3JfVTExIj48cGF0aCBkPSJNMTExMS4wNiw0My4zMyBDMTAzMy41LDQzLjQ2IDg0NC4yNSw1Mi43MSA3MTUuMTgsMTMzLjUgQzY4OS44OCwxNDkuMzQgNjc0LjAxMjgsMTc0LjgxOTEgNjY1LjAwMjgsMTkyLjEwOTEgIiBmaWxsPSJub25lIiBpZD0iSW5zdHJ1Y3Rvci10by1VMTEiIHN0eWxlPSJzdHJva2U6IzE4MTgxODtzdHJva2Utd2lkdGg6MS4wOyIvPjxwb2x5Z29uIGZpbGw9IiMxODE4MTgiIHBvaW50cz0iNjYyLjIzLDE5Ny40Myw2NjkuOTM2NCwxOTEuMjk3Miw2NjQuNTQwNiwxOTIuOTk1OSw2NjIuODQxOSwxODcuNjAwMiw2NjIuMjMsMTk3LjQzIiBzdHlsZT0ic3Ryb2tlOiMxODE4MTg7c3Ryb2tlLXdpZHRoOjEuMDsiLz48L2c+PCEtLWxpbmsgSW5zdHJ1Y3RvciB0byBVMTItLT48ZyBpZD0ibGlua19JbnN0cnVjdG9yX1UxMiI+PHBhdGggZD0iTTExMTEsNTQuMTIgQzEwNjQuMzEsNjguMzEgOTgwLjEsOTYuNTggOTE0LjE4LDEzMy41IEM4ODQuMDUsMTUwLjM4IDg1Ny41NDg1LDE3MS42MjM5IDgzOC4yMDg1LDE4OC40MzM5ICIgZmlsbD0ibm9uZSIgaWQ9Ikluc3RydWN0b3ItdG8tVTEyIiBzdHlsZT0ic3Ryb2tlOiMxODE4MTg7c3Ryb2tlLXdpZHRoOjEuMDsiLz48cG9seWdvbiBmaWxsPSIjMTgxODE4IiBwb2ludHM9IjgzMy42OCwxOTIuMzcsODQzLjA5NjgsMTg5LjQ4NDksODM3LjQ1MzcsMTg5LjA4OTksODM3Ljg0ODcsMTgzLjQ0NjksODMzLjY4LDE5Mi4zNyIgc3R5bGU9InN0cm9rZTojMTgxODE4O3N0cm9rZS13aWR0aDoxLjA7Ii8+PC9nPjwhLS1saW5rIEFkbWluIHRvIFU1LS0+PGcgaWQ9ImxpbmtfQWRtaW5fVTUiPjxwYXRoIGQ9Ik0xNjE1LjI0LDY0LjAyIEMxNjI2LjE4LDc2Ljc1IDE2MzkuOTUsOTMuOTIgMTY1MC4xOCwxMTAuNSBDMTY2Ny43NywxMzkgMTY4MC43NDU1LDE2OS43NDc5IDE2ODguNDk1NSwxODkuNjc3OSAiIGZpbGw9Im5vbmUiIGlkPSJBZG1pbi10by1VNSIgc3R5bGU9InN0cm9rZTojMTgxODE4O3N0cm9rZS13aWR0aDoxLjA7Ii8+PHBvbHlnb24gZmlsbD0iIzE4MTgxOCIgcG9pbnRzPSIxNjkwLjY3LDE5NS4yNywxNjkxLjEzNjIsMTg1LjQzMjIsMTY4OC44NTc5LDE5MC42MDk5LDE2ODMuNjgwMSwxODguMzMxNiwxNjkwLjY3LDE5NS4yNyIgc3R5bGU9InN0cm9rZTojMTgxODE4O3N0cm9rZS13aWR0aDoxLjA7Ii8+PC9nPjwhLS1saW5rIEFkbWluIHRvIFU2LS0+PGcgaWQ9ImxpbmtfQWRtaW5fVTYiPjxwYXRoIGQ9Ik0xNTk2LjQ2LDgwLjgyIEMxNTk0LjExLDk3LjAyIDE1ODguMzYsMTE0Ljc2IDE1NzUuMTgsMTI1LjUgQzE1NTIuNTgsMTQzLjkzIDE0NzEuMDUsMTIyLjE1IDE0NDQuMTgsMTMzLjUgQzE0MTIuNTcsMTQ2Ljg2IDEzODguODMzLDE3Mi42ODY5IDEzNzQuNTAzLDE5MC44NzY5ICIgZmlsbD0ibm9uZSIgaWQ9IkFkbWluLXRvLVU2IiBzdHlsZT0ic3Ryb2tlOiMxODE4MTg7c3Ryb2tlLXdpZHRoOjEuMDsiLz48cG9seWdvbiBmaWxsPSIjMTgxODE4IiBwb2ludHM9IjEzNzAuNzksMTk1LjU5LDEzNzkuNTAxNiwxOTAuOTk1NiwxMzczLjg4NDIsMTkxLjY2MjQsMTM3My4yMTc0LDE4Ni4wNDUsMTM3MC43OSwxOTUuNTkiIHN0eWxlPSJzdHJva2U6IzE4MTgxODtzdHJva2Utd2lkdGg6MS4wOyIvPjwvZz48IS0tbGluayBBZG1pbiB0byBVNy0tPjxnIGlkPSJsaW5rX0FkbWluX1U3Ij48cGF0aCBkPSJNMTYxNS4yMSw2OS40NCBDMTYyNC41NSw4NS45NSAxNjMyLjI4LDEwNy42MyAxNjIzLjE4LDEyNS41IEMxNjIwLjQ0LDEzMC44OSAxNjE2Ljg3LDEyOS42OCAxNjEyLjE4LDEzMy41IEMxNTg2Ljk1LDE1NC4wNiAxNTYzLjY4LDE3NS43NDY1IDE1NDcuMjQsMTkxLjUxNjUgIiBmaWxsPSJub25lIiBpZD0iQWRtaW4tdG8tVTciIHN0eWxlPSJzdHJva2U6IzE4MTgxODtzdHJva2Utd2lkdGg6MS4wOyIvPjxwb2x5Z29uIGZpbGw9IiMxODE4MTgiIHBvaW50cz0iMTU0Mi45MSwxOTUuNjcsMTU1Mi4xNzM5LDE5Mi4zMjY0LDE1NDYuNTE4MywxOTIuMjA4OCwxNTQ2LjYzNTksMTg2LjU1MzEsMTU0Mi45MSwxOTUuNjciIHN0eWxlPSJzdHJva2U6IzE4MTgxODtzdHJva2Utd2lkdGg6MS4wOyIvPjwvZz48IS0tbGluayBBZG1pbiB0byBVOC0tPjxnIGlkPSJsaW5rX0FkbWluX1U4Ij48cGF0aCBkPSJNMTYxNS4yOSw1MC43NyBDMTY0OS4yOCw2My45MSAxNzI0LjI1LDk1IDE3ODAuMTgsMTMzLjUgQzE4MDcuNDUsMTUyLjI2IDE4MzAuNTgxMywxNzUuNDM5NSAxODQ1Ljc5MTMsMTkxLjg0OTUgIiBmaWxsPSJub25lIiBpZD0iQWRtaW4tdG8tVTgiIHN0eWxlPSJzdHJva2U6IzE4MTgxODtzdHJva2Utd2lkdGg6MS4wOyIvPjxwb2x5Z29uIGZpbGw9IiMxODE4MTgiIHBvaW50cz0iMTg0OS44NywxOTYuMjUsMTg0Ni42ODU2LDE4Ni45MzAxLDE4NDYuNDcxMSwxOTIuNTgyOSwxODQwLjgxODMsMTkyLjM2ODQsMTg0OS44NywxOTYuMjUiIHN0eWxlPSJzdHJva2U6IzE4MTgxODtzdHJva2Utd2lkdGg6MS4wOyIvPjwvZz48IS0tbGluayBBZG1pbiB0byBVMTAtLT48ZyBpZD0ibGlua19BZG1pbl9VMTAiPjxwYXRoIGQ9Ik0xNTc4Ljk1LDUzLjM5IEMxNTQzLjYyLDcxLjA4IDE0NjIuODksMTA5LjA1IDEzOTAuMTgsMTI1LjUgQzEzNDAuNjQsMTM2LjcxIDEzMjQuMjksMTE3LjIxIDEyNzYuMTgsMTMzLjUgQzEyMzQuMzcsMTQ3LjY2IDExOTcuNTcyMSwxNzYuNzE1MiAxMTc3LjQxMjEsMTk0LjM4NTIgIiBmaWxsPSJub25lIiBpZD0iQWRtaW4tdG8tVTEwIiBzdHlsZT0ic3Ryb2tlOiMxODE4MTg7c3Ryb2tlLXdpZHRoOjEuMDsiLz48cG9seWdvbiBmaWxsPSIjMTgxODE4IiBwb2ludHM9IjExNzIuOSwxOTguMzQsMTE4Mi4zMDQ3LDE5NS40MTU4LDExNzYuNjYwMSwxOTUuMDQ0MywxMTc3LjAzMTYsMTg5LjM5OTcsMTE3Mi45LDE5OC4zNCIgc3R5bGU9InN0cm9rZTojMTgxODE4O3N0cm9rZS13aWR0aDoxLjA7Ii8+PC9nPjwhLS1saW5rIEFkbWluIHRvIFUxMS0tPjxnIGlkPSJsaW5rX0FkbWluX1UxMSI+PHBhdGggZD0iTTE1NzguOTgsNDUuNzUgQzE0NTMuNzksNTcuNzggNzI1LjAyLDEyOC4wMyA3MTUuMTgsMTMzLjUgQzY4OC45NCwxNDguMDkgNjczLjE5NjcsMTc0LjI5NTMgNjY0LjUwNjcsMTkxLjk3NTMgIiBmaWxsPSJub25lIiBpZD0iQWRtaW4tdG8tVTExIiBzdHlsZT0ic3Ryb2tlOiMxODE4MTg7c3Ryb2tlLXdpZHRoOjEuMDsiLz48cG9seWdvbiBmaWxsPSIjMTgxODE4IiBwb2ludHM9IjY2MS44NiwxOTcuMzYsNjY5LjQxOTgsMTkxLjA0NzQsNjY0LjA2NTYsMTkyLjg3MjcsNjYyLjI0MDIsMTg3LjUxODUsNjYxLjg2LDE5Ny4zNiIgc3R5bGU9InN0cm9rZTojMTgxODE4O3N0cm9rZS13aWR0aDoxLjA7Ii8+PC9nPjwhLS1saW5rIEFkbWluIHRvIFUxMi0tPjxnIGlkPSJsaW5rX0FkbWluX1UxMiI+PHBhdGggZD0iTTE1NzguODUsNTAuMDQgQzE1MjkuMyw2Ni4wNCAxMzg4LjI3LDEwOS4zNyAxMjY3LjE4LDEyNS41IEMxMjI4LjI5LDEzMC42OCA5NTEuMiwxMjAuNSA5MTQuMTgsMTMzLjUgQzg4MC4zNiwxNDUuMzggODUzLjAzNDUsMTY5LjE1OTYgODM0Ljc0NDUsMTg3Ljc3OTYgIiBmaWxsPSJub25lIiBpZD0iQWRtaW4tdG8tVTEyIiBzdHlsZT0ic3Ryb2tlOiMxODE4MTg7c3Ryb2tlLXdpZHRoOjEuMDsiLz48cG9seWdvbiBmaWxsPSIjMTgxODE4IiBwb2ludHM9IjgzMC41NCwxOTIuMDYsODM5LjcwMDQsMTg4LjQ0MjQsODM0LjA0MzgsMTg4LjQ5Myw4MzMuOTkzMiwxODIuODM2NCw4MzAuNTQsMTkyLjA2IiBzdHlsZT0ic3Ryb2tlOiMxODE4MTg7c3Ryb2tlLXdpZHRoOjEuMDsiLz48L2c+PCEtLWxpbmsgVTIgdG8gVTEwLS0+PGcgaWQ9ImxpbmtfVTJfVTEwIj48cGF0aCBkPSJNMTUxLjU2LDE5Mi4xMiBDMTY5Ljk4LDE3My42MiAyMDAuOTcsMTQ2LjYzIDIzNC4xOCwxMzUuNSBDMjgwLjE3LDEyMC4wOSAxMDY0LjE1LDExMy4xMyAxMTA3LjE4LDEzNS41IEMxMTMyLjMzLDE0OC41NyAxMTQ1Ljc3ODYsMTc0LjEwMjUgMTE1My4wNzg2LDE5Mi4wNDI1ICIgZmlsbD0ibm9uZSIgaWQ9IlUyLXRvLVUxMCIgc3R5bGU9InN0cm9rZTojMTgxODE4O3N0cm9rZS13aWR0aDoxLjA7c3Ryb2tlLWRhc2hhcnJheTo3LjAsNy4wOyIvPjxwb2x5Z29uIGZpbGw9IiMxODE4MTgiIHBvaW50cz0iMTE1NS4zNCwxOTcuNiwxMTU1LjY1MjksMTg3Ljc1NjEsMTE1My40NTU1LDE5Mi45Njg3LDExNDguMjQyOSwxOTAuNzcxMywxMTU1LjM0LDE5Ny42IiBzdHlsZT0ic3Ryb2tlOiMxODE4MTg7c3Ryb2tlLXdpZHRoOjEuMDsiLz48dGV4dCBmaWxsPSIjMDAwMDAwIiBmb250LWZhbWlseT0ic2Fucy1zZXJpZiIgZm9udC1zaXplPSIxMyIgbGVuZ3RoQWRqdXN0PSJzcGFjaW5nIiB0ZXh0TGVuZ3RoPSI2MSIgeD0iNjU0LjY4IiB5PSIxMjMuNzg5MSI+JiMxNzE7aW5jbHVkZSYjMTg3OzwvdGV4dD48L2c+PCEtLWxpbmsgVTUgdG8gVTEwLS0+PGcgaWQ9ImxpbmtfVTVfVTEwIj48cGF0aCBkPSJNMTY4NC45MSwxOTUuNTMgQzE2NzAuNDUsMTc3LjE2IDE2NDMuNDksMTQ3LjUgMTYxMi4xOCwxMzUuNSBDMTU0Mi40NiwxMDguNzcgMTM0Ny43NiwxMTQuMjYgMTI3Ni4xOCwxMzUuNSBDMTIzNC43MiwxNDcuODEgMTE5OC42OTYsMTc2LjE0NTYgMTE3OC4zMDYsMTk0LjI1NTYgIiBmaWxsPSJub25lIiBpZD0iVTUtdG8tVTEwIiBzdHlsZT0ic3Ryb2tlOiMxODE4MTg7c3Ryb2tlLXdpZHRoOjEuMDtzdHJva2UtZGFzaGFycmF5OjcuMCw3LjA7Ii8+PHBvbHlnb24gZmlsbD0iIzE4MTgxOCIgcG9pbnRzPSIxMTczLjgyLDE5OC4yNCwxMTgzLjIwNTMsMTk1LjI1NDEsMTE3Ny41NTg0LDE5NC45MTk3LDExNzcuODkyOCwxODkuMjcyNywxMTczLjgyLDE5OC4yNCIgc3R5bGU9InN0cm9rZTojMTgxODE4O3N0cm9rZS13aWR0aDoxLjA7Ii8+PHRleHQgZmlsbD0iIzAwMDAwMCIgZm9udC1mYW1pbHk9InNhbnMtc2VyaWYiIGZvbnQtc2l6ZT0iMTMiIGxlbmd0aEFkanVzdD0ic3BhY2luZyIgdGV4dExlbmd0aD0iNjEiIHg9IjE1MTEuNjgiIHk9IjEyMy43ODkxIj4mIzE3MTtpbmNsdWRlJiMxODc7PC90ZXh0PjwvZz48IS0tbGluayBVNiB0byBVMTAtLT48ZyBpZD0ibGlua19VNl9VMTAiPjxwYXRoIGQ9Ik0xMjkzLjUsMjExIEMxMjYxLjA5LDIxMSAxMjI5LjQyLDIxMSAxMjAyLjQsMjExICIgZmlsbD0ibm9uZSIgaWQ9IlU2LXRvLVUxMCIgc3R5bGU9InN0cm9rZTojMTgxODE4O3N0cm9rZS13aWR0aDoxLjA7c3Ryb2tlLWRhc2hhcnJheTo3LjAsNy4wOyIvPjxwb2x5Z29uIGZpbGw9IiMxODE4MTgiIHBvaW50cz0iMTE5Ni40LDIxMSwxMjA1LjQsMjE1LDEyMDEuNCwyMTEsMTIwNS40LDIwNywxMTk2LjQsMjExIiBzdHlsZT0ic3Ryb2tlOiMxODE4MTg7c3Ryb2tlLXdpZHRoOjEuMDsiLz48dGV4dCBmaWxsPSIjMDAwMDAwIiBmb250LWZhbWlseT0ic2Fucy1zZXJpZiIgZm9udC1zaXplPSIxMyIgbGVuZ3RoQWRqdXN0PSJzcGFjaW5nIiB0ZXh0TGVuZ3RoPSI2MSIgeD0iMTIxNC40MyIgeT0iMjA2LjI4OTEiPiYjMTcxO2luY2x1ZGUmIzE4Nzs8L3RleHQ+PC9nPjwhLS1saW5rIFU3IHRvIFUxMC0tPjxnIGlkPSJsaW5rX1U3X1UxMCI+PHBhdGggZD0iTTE1MTYuOTEsMTk1LjUzIEMxNTAyLjQ1LDE3Ny4xNiAxNDc1LjQ5LDE0Ny41IDE0NDQuMTgsMTM1LjUgQzEzNzQuNDYsMTA4Ljc3IDEzNDcuNzYsMTE0LjI2IDEyNzYuMTgsMTM1LjUgQzEyMzQuNzIsMTQ3LjgxIDExOTguNjk2LDE3Ni4xNDU2IDExNzguMzA2LDE5NC4yNTU2ICIgZmlsbD0ibm9uZSIgaWQ9IlU3LXRvLVUxMCIgc3R5bGU9InN0cm9rZTojMTgxODE4O3N0cm9rZS13aWR0aDoxLjA7c3Ryb2tlLWRhc2hhcnJheTo3LjAsNy4wOyIvPjxwb2x5Z29uIGZpbGw9IiMxODE4MTgiIHBvaW50cz0iMTE3My44MiwxOTguMjQsMTE4My4yMDUzLDE5NS4yNTQxLDExNzcuNTU4NCwxOTQuOTE5NywxMTc3Ljg5MjgsMTg5LjI3MjcsMTE3My44MiwxOTguMjQiIHN0eWxlPSJzdHJva2U6IzE4MTgxODtzdHJva2Utd2lkdGg6MS4wOyIvPjx0ZXh0IGZpbGw9IiMwMDAwMDAiIGZvbnQtZmFtaWx5PSJzYW5zLXNlcmlmIiBmb250LXNpemU9IjEzIiBsZW5ndGhBZGp1c3Q9InNwYWNpbmciIHRleHRMZW5ndGg9IjYxIiB4PSIxMTk2LjY4IiB5PSIxMjMuNzg5MSI+JiMxNzE7aW5jbHVkZSYjMTg3OzwvdGV4dD48L2c+PCEtLWxpbmsgVTExIHRvIFUxMC0tPjxnIGlkPSJsaW5rX1UxMV9VMTAiPjxwYXRoIGQ9Ik02NjIuMDEsMTk3LjU2IEM2NzAuNjQsMTc5LjU2IDY4OC43MiwxNDguNDEgNzE1LjE4LDEzNS41IEM3NTQuMzMsMTE2LjQxIDEwNjguNTQsMTE1LjQxIDExMDcuMTgsMTM1LjUgQzExMzIuMzMsMTQ4LjU3IDExNDUuNzc4NiwxNzQuMTAyNSAxMTUzLjA3ODYsMTkyLjA0MjUgIiBmaWxsPSJub25lIiBpZD0iVTExLXRvLVUxMCIgc3R5bGU9InN0cm9rZTojMTgxODE4O3N0cm9rZS13aWR0aDoxLjA7c3Ryb2tlLWRhc2hhcnJheTo3LjAsNy4wOyIvPjxwb2x5Z29uIGZpbGw9IiMxODE4MTgiIHBvaW50cz0iMTE1NS4zNCwxOTcuNiwxMTU1LjY1MjksMTg3Ljc1NjEsMTE1My40NTU1LDE5Mi45Njg3LDExNDguMjQyOSwxOTAuNzcxMywxMTU1LjM0LDE5Ny42IiBzdHlsZT0ic3Ryb2tlOiMxODE4MTg7c3Ryb2tlLXdpZHRoOjEuMDsiLz48dGV4dCBmaWxsPSIjMDAwMDAwIiBmb250LWZhbWlseT0ic2Fucy1zZXJpZiIgZm9udC1zaXplPSIxMyIgbGVuZ3RoQWRqdXN0PSJzcGFjaW5nIiB0ZXh0TGVuZ3RoPSI2MSIgeD0iOTk0LjY4IiB5PSIxMjMuNzg5MSI+JiMxNzE7aW5jbHVkZSYjMTg3OzwvdGV4dD48L2c+PCEtLWxpbmsgVTEyIHRvIFUxMC0tPjxnIGlkPSJsaW5rX1UxMl9VMTAiPjxwYXRoIGQ9Ik04MzEuNTYsMTkyLjEyIEM4NDkuOTgsMTczLjYyIDg4MC45NywxNDYuNjMgOTE0LjE4LDEzNS41IEM5NTQuODUsMTIxLjg3IDEwNjkuMTMsMTE1LjcyIDExMDcuMTgsMTM1LjUgQzExMzIuMzMsMTQ4LjU3IDExNDUuNzc4NiwxNzQuMTAyNSAxMTUzLjA3ODYsMTkyLjA0MjUgIiBmaWxsPSJub25lIiBpZD0iVTEyLXRvLVUxMCIgc3R5bGU9InN0cm9rZTojMTgxODE4O3N0cm9rZS13aWR0aDoxLjA7c3Ryb2tlLWRhc2hhcnJheTo3LjAsNy4wOyIvPjxwb2x5Z29uIGZpbGw9IiMxODE4MTgiIHBvaW50cz0iMTE1NS4zNCwxOTcuNiwxMTU1LjY1MjksMTg3Ljc1NjEsMTE1My40NTU1LDE5Mi45Njg3LDExNDguMjQyOSwxOTAuNzcxMywxMTU1LjM0LDE5Ny42IiBzdHlsZT0ic3Ryb2tlOiMxODE4MTg7c3Ryb2tlLXdpZHRoOjEuMDsiLz48dGV4dCBmaWxsPSIjMDAwMDAwIiBmb250LWZhbWlseT0ic2Fucy1zZXJpZiIgZm9udC1zaXplPSIxMyIgbGVuZ3RoQWRqdXN0PSJzcGFjaW5nIiB0ZXh0TGVuZ3RoPSI2MSIgeD0iMTA2Mi42OCIgeT0iMTIzLjc4OTEiPiYjMTcxO2luY2x1ZGUmIzE4Nzs8L3RleHQ+PC9nPjwhLS1yZXZlcnNlIGxpbmsgVTEwIHRvIFU5LS0+PGcgaWQ9ImxpbmtfVTEwX1U5Ij48cGF0aCBkPSJNMTExOS40ODMxLDIyNy4yNjQzIEMxMTEwLjQyMzEsMjMwLjUyNDMgMTExNi44OSwyMjcuOTMgMTEwNy4xOCwyMzAuNSBDOTUwLjYyLDI3MS45NSA3NTkuOTcsMzAwLjU5IDY3NS4zMiwzMTIuMjEgIiBmaWxsPSJub25lIiBpZD0iVTEwLWJhY2t0by1VOSIgc3R5bGU9InN0cm9rZTojMTgxODE4O3N0cm9rZS13aWR0aDoxLjA7Ii8+PHBvbHlnb24gZmlsbD0ibm9uZSIgcG9pbnRzPSIxMTM2LjQyLDIyMS4xNywxMTE3LjQ1MTYsMjIxLjYxODcsMTEyMS41MTQ1LDIzMi45MDk5LDExMzYuNDIsMjIxLjE3IiBzdHlsZT0ic3Ryb2tlOiMxODE4MTg7c3Ryb2tlLXdpZHRoOjEuMDsiLz48dGV4dCBmaWxsPSIjMDAwMDAwIiBmb250LWZhbWlseT0ic2Fucy1zZXJpZiIgZm9udC1zaXplPSIxMyIgbGVuZ3RoQWRqdXN0PSJzcGFjaW5nIiB0ZXh0TGVuZ3RoPSI1NSIgeD0iOTc4LjE4IiB5PSIyNzMuNzg5MSI+JiMxNzE7ZXh0ZW5kJiMxODc7PC90ZXh0PjwvZz48IS0tU1JDPVtUTERUUXVDbTU3dEZoeFpoa3dGUUxqaVhXaFhJMWtxVXNoZHRKRXlhTzlFSEgzUk96anlOaE1ONkw5eXk3dnZwa09idDlSdXBaZDNTUFlfZnlzd19YUUFjSVg2STViZjhFRWNjSEF2eHpDSUxiYXR4c1hEZlVNUVM0OGM1ZmhvZzRNTzduWGFTWDJYaGRDNHQwVkNxMldrZ1pGUkF5MUNvcUtXM0NpNnIyUHUxTFAzeGprX0tsOXNQWGJHZkxsNnBTUWNCQlJXSGp2RXFuNXZWczdlZGtJYkJzdkw5ZjFoeGlJd0ViVXQ4Rnlnbjh4R1RaclpabzE3UFpXRmJqNEI4NVNmLVpCTGpFNkI1YjRQdjRKVXNrMVNMdV9zZ3ZldWFja2lRX1BrYk1vdjVOR3lzdTBWYWJ2My1RQzdwYWxPNEIxWk9TNjczcFVaUi1HWUZtYW1ULVJ5dnJ4dW5pdElPYlNFNDNYRXZvTkVOU2psUWNSaEJVd3FRVzcwOGVZNU8zdTRmNllCVkdZTy0zLTItaXk0M24zN1pITXJzYVlHYU5xdG11R0dWSlYyLUZvTENEOUVNWWR5eXBublg5LTZOLUdWQjlGYTNdLS0+PC9nPjwvc3ZnPg==;" vertex="1" parent="1">
            <mxGeometry x="-1040" y="570" width="1948" height="354" as="geometry" />
          </mxCell>
        </UserObject>
        <UserObject label="" plantUmlData="{&#xa;  &quot;data&quot;: &quot;@startuml\n\n!define RECTANGLE class\n\nleft to right direction\n\nActor Student\nActor Instructor\nActor Admin\n\nrectangle \&quot;Mini Moodle\&quot; {\n    usecase \&quot;Register\&quot; as U9\n    usecase \&quot;Login\&quot; as U10\n    usecase \&quot;Logout\&quot; as U11\n    usecase \&quot;View Course Content\&quot; as U1\n    usecase \&quot;Submit Assignments\&quot; as U2\n    usecase \&quot;View Grades\&quot; as U3\n    usecase \&quot;Grade Assignments\&quot; as U4\n    usecase \&quot;Create Course\&quot; as U5\n    usecase \&quot;Update Course\&quot; as U6\n    usecase \&quot;Delete Course\&quot; as U7\n    usecase \&quot;Manage Users\&quot; as U8\n    usecase \&quot;Manage Enrollments\&quot; as U12\n}\n\nStudent --&gt; U9\nStudent --&gt; U10\nStudent --&gt; U11\nStudent --&gt; U1\nStudent --&gt; U2\nStudent --&gt; U3\nStudent --&gt; U12\n\nInstructor --&gt; U10\nInstructor --&gt; U11\nInstructor --&gt; U1\nInstructor --&gt; U4\nInstructor --&gt; U5\nInstructor --&gt; U6\nInstructor --&gt; U7\nInstructor --&gt; U12\n\nAdmin --&gt; U10\nAdmin --&gt; U11\nAdmin --&gt; U5\nAdmin --&gt; U6\nAdmin --&gt; U7\nAdmin --&gt; U8\nAdmin --&gt; U12\n\nU2 .&gt; U10 : &lt;&lt;include&gt;&gt;\nU5 .&gt; U10 : &lt;&lt;include&gt;&gt;\nU6 .&gt; U10 : &lt;&lt;include&gt;&gt;\nU7 .&gt; U10 : &lt;&lt;include&gt;&gt;\nU11 .&gt; U10 : &lt;&lt;include&gt;&gt;\nU12 .&gt; U10 : &lt;&lt;include&gt;&gt;\n\nU10 &lt;|-- U9 : &lt;&lt;extend&gt;&gt;\n\n@enduml\n&quot;,&#xa;  &quot;format&quot;: &quot;svg&quot;&#xa;}" id="Jk81Rdkdg_P-vW7fp1gQ-5">
          <mxCell style="shape=image;noLabel=1;verticalAlign=top;aspect=fixed;imageAspect=0;image=data:image/svg+xml,PD94bWwgdmVyc2lvbj0iMS4wIiBlbmNvZGluZz0idXMtYXNjaWkiIHN0YW5kYWxvbmU9Im5vIj8+PHN2ZyB4bWxucz0iaHR0cDovL3d3dy53My5vcmcvMjAwMC9zdmciIHhtbG5zOnhsaW5rPSJodHRwOi8vd3d3LnczLm9yZy8xOTk5L3hsaW5rIiBjb250ZW50U3R5bGVUeXBlPSJ0ZXh0L2NzcyIgaGVpZ2h0PSI5NDdweCIgcHJlc2VydmVBc3BlY3RSYXRpbz0ibm9uZSIgc3R5bGU9IndpZHRoOjYxMnB4O2hlaWdodDo5NDdweDtiYWNrZ3JvdW5kOiNGRkZGRkY7IiB2ZXJzaW9uPSIxLjEiIHZpZXdCb3g9IjAgMCA2MTIgOTQ3IiB3aWR0aD0iNjEycHgiIHpvb21BbmRQYW49Im1hZ25pZnkiPjxkZWZzLz48Zz48IS0tY2x1c3RlciBNaW5pIE1vb2RsZS0tPjxnIGlkPSJjbHVzdGVyX01pbmkgTW9vZGxlIj48cmVjdCBmaWxsPSJub25lIiBoZWlnaHQ9Ijc3NCIgcng9IjIuNSIgcnk9IjIuNSIgc3R5bGU9InN0cm9rZTojMTgxODE4O3N0cm9rZS13aWR0aDoxLjA7IiB3aWR0aD0iNDIxIiB4PSIxODUiIHk9IjEwNC43NyIvPjx0ZXh0IGZpbGw9IiMwMDAwMDAiIGZvbnQtZmFtaWx5PSJzYW5zLXNlcmlmIiBmb250LXNpemU9IjE0IiBmb250LXdlaWdodD0iYm9sZCIgbGVuZ3RoQWRqdXN0PSJzcGFjaW5nIiB0ZXh0TGVuZ3RoPSI3NyIgeD0iMzU3IiB5PSIxMjAuMDA0NCI+TWluaSBNb29kbGU8L3RleHQ+PC9nPjxnIGlkPSJlbGVtX1U5Ij48ZWxsaXBzZSBjeD0iNTM5LjA4MzMiIGN5PSIyNDEuODY1NiIgZmlsbD0iI0YxRjFGMSIgcng9IjUxLjA4MzMiIHJ5PSIxMy41OTU2IiBzdHlsZT0ic3Ryb2tlOiMxODE4MTg7c3Ryb2tlLXdpZHRoOjAuNTsiLz48dGV4dCBmaWxsPSIjMDAwMDAwIiBmb250LWZhbWlseT0ic2Fucy1zZXJpZiIgZm9udC1zaXplPSIxNCIgbGVuZ3RoQWRqdXN0PSJzcGFjaW5nIiB0ZXh0TGVuZ3RoPSI1NiIgeD0iNTExLjA4MzMiIHk9IjI0NS42MDc3Ij5SZWdpc3RlcjwvdGV4dD48L2c+PGcgaWQ9ImVsZW1fVTEwIj48ZWxsaXBzZSBjeD0iMjg2LjIzNCIgY3k9IjUwOC44NjU2IiBmaWxsPSIjRjFGMUYxIiByeD0iMzYuMjM0IiByeT0iMTMuNTk1NiIgc3R5bGU9InN0cm9rZTojMTgxODE4O3N0cm9rZS13aWR0aDowLjU7Ii8+PHRleHQgZmlsbD0iIzAwMDAwMCIgZm9udC1mYW1pbHk9InNhbnMtc2VyaWYiIGZvbnQtc2l6ZT0iMTQiIGxlbmd0aEFkanVzdD0ic3BhY2luZyIgdGV4dExlbmd0aD0iMzUiIHg9IjI2OC43MzQiIHk9IjUxMi42MDc3Ij5Mb2dpbjwvdGV4dD48L2c+PGcgaWQ9ImVsZW1fVTExIj48ZWxsaXBzZSBjeD0iMjg2LjE4MzgiIGN5PSI1ODUuODY1NiIgZmlsbD0iI0YxRjFGMSIgcng9IjQxLjE4MzgiIHJ5PSIxMy41OTU2IiBzdHlsZT0ic3Ryb2tlOiMxODE4MTg7c3Ryb2tlLXdpZHRoOjAuNTsiLz48dGV4dCBmaWxsPSIjMDAwMDAwIiBmb250LWZhbWlseT0ic2Fucy1zZXJpZiIgZm9udC1zaXplPSIxNCIgbGVuZ3RoQWRqdXN0PSJzcGFjaW5nIiB0ZXh0TGVuZ3RoPSI0MiIgeD0iMjY1LjE4MzgiIHk9IjU4OS42MDc3Ij5Mb2dvdXQ8L3RleHQ+PC9nPjxnIGlkPSJlbGVtX1UxIj48ZWxsaXBzZSBjeD0iMjg2LjA1MDciIGN5PSIyOTUuNjgwMSIgZmlsbD0iI0YxRjFGMSIgcng9Ijg1LjA1MDciIHJ5PSIxOS40MTAxIiBzdHlsZT0ic3Ryb2tlOiMxODE4MTg7c3Ryb2tlLXdpZHRoOjAuNTsiLz48dGV4dCBmaWxsPSIjMDAwMDAwIiBmb250LWZhbWlseT0ic2Fucy1zZXJpZiIgZm9udC1zaXplPSIxNCIgbGVuZ3RoQWRqdXN0PSJzcGFjaW5nIiB0ZXh0TGVuZ3RoPSIxMzQiIHg9IjIxOS4wNTA3IiB5PSIyOTkuNDIyMyI+VmlldyBDb3Vyc2UgQ29udGVudDwvdGV4dD48L2c+PGcgaWQ9ImVsZW1fVTIiPjxlbGxpcHNlIGN4PSIyODUuODkzNSIgY3k9IjIyMS42NDg3IiBmaWxsPSIjRjFGMUYxIiByeD0iODIuMzkzNSIgcnk9IjE4Ljg3ODciIHN0eWxlPSJzdHJva2U6IzE4MTgxODtzdHJva2Utd2lkdGg6MC41OyIvPjx0ZXh0IGZpbGw9IiMwMDAwMDAiIGZvbnQtZmFtaWx5PSJzYW5zLXNlcmlmIiBmb250LXNpemU9IjE0IiBsZW5ndGhBZGp1c3Q9InNwYWNpbmciIHRleHRMZW5ndGg9IjEyOCIgeD0iMjIxLjg5MzUiIHk9IjIyNS4zOTA5Ij5TdWJtaXQgQXNzaWdubWVudHM8L3RleHQ+PC9nPjxnIGlkPSJlbGVtX1UzIj48ZWxsaXBzZSBjeD0iMjg2LjA1MTkiIGN5PSIxNTIuOTgwNCIgZmlsbD0iI0YxRjFGMSIgcng9IjYxLjU1MTkiIHJ5PSIxNC43MTA0IiBzdHlsZT0ic3Ryb2tlOiMxODE4MTg7c3Ryb2tlLXdpZHRoOjAuNTsiLz48dGV4dCBmaWxsPSIjMDAwMDAwIiBmb250LWZhbWlseT0ic2Fucy1zZXJpZiIgZm9udC1zaXplPSIxNCIgbGVuZ3RoQWRqdXN0PSJzcGFjaW5nIiB0ZXh0TGVuZ3RoPSI3OCIgeD0iMjQ3LjA1MTkiIHk9IjE1Ni43MjI2Ij5WaWV3IEdyYWRlczwvdGV4dD48L2c+PGcgaWQ9ImVsZW1fVTQiPjxlbGxpcHNlIGN4PSIyODUuODkwMiIgY3k9IjQ0MS45NDgiIGZpbGw9IiNGMUYxRjEiIHJ4PSI3OC44OTAyIiByeT0iMTguMTc4IiBzdHlsZT0ic3Ryb2tlOiMxODE4MTg7c3Ryb2tlLXdpZHRoOjAuNTsiLz48dGV4dCBmaWxsPSIjMDAwMDAwIiBmb250LWZhbWlseT0ic2Fucy1zZXJpZiIgZm9udC1zaXplPSIxNCIgbGVuZ3RoQWRqdXN0PSJzcGFjaW5nIiB0ZXh0TGVuZ3RoPSIxMjAiIHg9IjIyNS44OTAyIiB5PSI0NDUuNjkwMiI+R3JhZGUgQXNzaWdubWVudHM8L3RleHQ+PC9nPjxnIGlkPSJlbGVtX1U1Ij48ZWxsaXBzZSBjeD0iMjg2LjE4MzQiIGN5PSI3MTYuMDA2NyIgZmlsbD0iI0YxRjFGMSIgcng9IjY2LjY4MzQiIHJ5PSIxNS43MzY3IiBzdHlsZT0ic3Ryb2tlOiMxODE4MTg7c3Ryb2tlLXdpZHRoOjAuNTsiLz48dGV4dCBmaWxsPSIjMDAwMDAwIiBmb250LWZhbWlseT0ic2Fucy1zZXJpZiIgZm9udC1zaXplPSIxNCIgbGVuZ3RoQWRqdXN0PSJzcGFjaW5nIiB0ZXh0TGVuZ3RoPSI5MSIgeD0iMjQwLjY4MzQiIHk9IjcxOS43NDg5Ij5DcmVhdGUgQ291cnNlPC90ZXh0PjwvZz48ZyBpZD0iZWxlbV9VNiI+PGVsbGlwc2UgY3g9IjI4Ni4xODM0IiBjeT0iNjUwLjAwNjciIGZpbGw9IiNGMUYxRjEiIHJ4PSI2Ni42ODM0IiByeT0iMTUuNzM2NyIgc3R5bGU9InN0cm9rZTojMTgxODE4O3N0cm9rZS13aWR0aDowLjU7Ii8+PHRleHQgZmlsbD0iIzAwMDAwMCIgZm9udC1mYW1pbHk9InNhbnMtc2VyaWYiIGZvbnQtc2l6ZT0iMTQiIGxlbmd0aEFkanVzdD0ic3BhY2luZyIgdGV4dExlbmd0aD0iOTEiIHg9IjI0MC42ODM0IiB5PSI2NTMuNzQ4OSI+VXBkYXRlIENvdXJzZTwvdGV4dD48L2c+PGcgaWQ9ImVsZW1fVTciPjxlbGxpcHNlIGN4PSIyODYuMTgzNCIgY3k9Ijc4Mi4wMDY3IiBmaWxsPSIjRjFGMUYxIiByeD0iNjYuNjgzNCIgcnk9IjE1LjczNjciIHN0eWxlPSJzdHJva2U6IzE4MTgxODtzdHJva2Utd2lkdGg6MC41OyIvPjx0ZXh0IGZpbGw9IiMwMDAwMDAiIGZvbnQtZmFtaWx5PSJzYW5zLXNlcmlmIiBmb250LXNpemU9IjE0IiBsZW5ndGhBZGp1c3Q9InNwYWNpbmciIHRleHRMZW5ndGg9IjkxIiB4PSIyNDAuNjgzNCIgeT0iNzg1Ljc0ODkiPkRlbGV0ZSBDb3Vyc2U8L3RleHQ+PC9nPjxnIGlkPSJlbGVtX1U4Ij48ZWxsaXBzZSBjeD0iMjg1Ljg4NzgiIGN5PSI4NDcuOTQ3NiIgZmlsbD0iI0YxRjFGMSIgcng9IjYzLjg4NzgiIHJ5PSIxNS4xNzc2IiBzdHlsZT0ic3Ryb2tlOiMxODE4MTg7c3Ryb2tlLXdpZHRoOjAuNTsiLz48dGV4dCBmaWxsPSIjMDAwMDAwIiBmb250LWZhbWlseT0ic2Fucy1zZXJpZiIgZm9udC1zaXplPSIxNCIgbGVuZ3RoQWRqdXN0PSJzcGFjaW5nIiB0ZXh0TGVuZ3RoPSI4NCIgeD0iMjQzLjg4NzgiIHk9Ijg1MS42ODk3Ij5NYW5hZ2UgVXNlcnM8L3RleHQ+PC9nPjxnIGlkPSJlbGVtX1UxMiI+PGVsbGlwc2UgY3g9IjI4NS45NTMiIGN5PSIzNjkuNTYwNiIgZmlsbD0iI0YxRjFGMSIgcng9IjgxLjk1MyIgcnk9IjE4Ljc5MDYiIHN0eWxlPSJzdHJva2U6IzE4MTgxODtzdHJva2Utd2lkdGg6MC41OyIvPjx0ZXh0IGZpbGw9IiMwMDAwMDAiIGZvbnQtZmFtaWx5PSJzYW5zLXNlcmlmIiBmb250LXNpemU9IjE0IiBsZW5ndGhBZGp1c3Q9InNwYWNpbmciIHRleHRMZW5ndGg9IjEyNyIgeD0iMjIyLjQ1MyIgeT0iMzczLjMwMjgiPk1hbmFnZSBFbnJvbGxtZW50czwvdGV4dD48L2c+PCEtLWVudGl0eSBTdHVkZW50LS0+PGcgaWQ9ImVsZW1fU3R1ZGVudCI+PGVsbGlwc2UgY3g9IjQxIiBjeT0iNzguNzciIGZpbGw9IiNGMUYxRjEiIHJ4PSI4IiByeT0iOCIgc3R5bGU9InN0cm9rZTojMTgxODE4O3N0cm9rZS13aWR0aDowLjU7Ii8+PHBhdGggZD0iTTQxLDg2Ljc3IEw0MSwxMTMuNzcgTTI4LDk0Ljc3IEw1NCw5NC43NyBNNDEsMTEzLjc3IEwyOCwxMjguNzcgTTQxLDExMy43NyBMNTQsMTI4Ljc3ICIgZmlsbD0ibm9uZSIgc3R5bGU9InN0cm9rZTojMTgxODE4O3N0cm9rZS13aWR0aDowLjU7Ii8+PHRleHQgZmlsbD0iIzAwMDAwMCIgZm9udC1mYW1pbHk9InNhbnMtc2VyaWYiIGZvbnQtc2l6ZT0iMTQiIGxlbmd0aEFkanVzdD0ic3BhY2luZyIgdGV4dExlbmd0aD0iNDkiIHg9IjE2LjUiIHk9IjE0My41MDQ0Ij5TdHVkZW50PC90ZXh0PjwvZz48IS0tZW50aXR5IEluc3RydWN0b3ItLT48ZyBpZD0iZWxlbV9JbnN0cnVjdG9yIj48ZWxsaXBzZSBjeD0iNDEiIGN5PSI0OTkuNzciIGZpbGw9IiNGMUYxRjEiIHJ4PSI4IiByeT0iOCIgc3R5bGU9InN0cm9rZTojMTgxODE4O3N0cm9rZS13aWR0aDowLjU7Ii8+PHBhdGggZD0iTTQxLDUwNy43NyBMNDEsNTM0Ljc3IE0yOCw1MTUuNzcgTDU0LDUxNS43NyBNNDEsNTM0Ljc3IEwyOCw1NDkuNzcgTTQxLDUzNC43NyBMNTQsNTQ5Ljc3ICIgZmlsbD0ibm9uZSIgc3R5bGU9InN0cm9rZTojMTgxODE4O3N0cm9rZS13aWR0aDowLjU7Ii8+PHRleHQgZmlsbD0iIzAwMDAwMCIgZm9udC1mYW1pbHk9InNhbnMtc2VyaWYiIGZvbnQtc2l6ZT0iMTQiIGxlbmd0aEFkanVzdD0ic3BhY2luZyIgdGV4dExlbmd0aD0iNzAiIHg9IjYiIHk9IjU2NC41MDQ0Ij5JbnN0cnVjdG9yPC90ZXh0PjwvZz48IS0tZW50aXR5IEFkbWluLS0+PGcgaWQ9ImVsZW1fQWRtaW4iPjxlbGxpcHNlIGN4PSI0MSIgY3k9Ijc1Ni43NyIgZmlsbD0iI0YxRjFGMSIgcng9IjgiIHJ5PSI4IiBzdHlsZT0ic3Ryb2tlOiMxODE4MTg7c3Ryb2tlLXdpZHRoOjAuNTsiLz48cGF0aCBkPSJNNDEsNzY0Ljc3IEw0MSw3OTEuNzcgTTI4LDc3Mi43NyBMNTQsNzcyLjc3IE00MSw3OTEuNzcgTDI4LDgwNi43NyBNNDEsNzkxLjc3IEw1NCw4MDYuNzcgIiBmaWxsPSJub25lIiBzdHlsZT0ic3Ryb2tlOiMxODE4MTg7c3Ryb2tlLXdpZHRoOjAuNTsiLz48dGV4dCBmaWxsPSIjMDAwMDAwIiBmb250LWZhbWlseT0ic2Fucy1zZXJpZiIgZm9udC1zaXplPSIxNCIgbGVuZ3RoQWRqdXN0PSJzcGFjaW5nIiB0ZXh0TGVuZ3RoPSIzNiIgeD0iMjMiIHk9IjgyMS41MDQ0Ij5BZG1pbjwvdGV4dD48L2c+PCEtLWxpbmsgU3R1ZGVudCB0byBVOS0tPjxnIGlkPSJsaW5rX1N0dWRlbnRfVTkiPjxwYXRoIGQ9Ik01OC40OSw3MC4yMyBDNjkuMDcsNTEuMSA4NC44MywyOS42MiAxMDYsMTguNzcgQzEzMC45Miw2IDE0MS43NiwxMi4yOCAxNjksMTguNzcgQzMyNC44Myw1NS44OCA0NzMuNTQzNiwxODIuNzQwNCA1MTkuNjEzNiwyMjQuNjkwNCAiIGZpbGw9Im5vbmUiIGlkPSJTdHVkZW50LXRvLVU5IiBzdHlsZT0ic3Ryb2tlOiMxODE4MTg7c3Ryb2tlLXdpZHRoOjEuMDsiLz48cG9seWdvbiBmaWxsPSIjMTgxODE4IiBwb2ludHM9IjUyNC4wNSwyMjguNzMsNTIwLjA4ODUsMjE5LjcxMyw1MjAuMzUzLDIyNS4zNjM2LDUxNC43MDI0LDIyNS42MjgxLDUyNC4wNSwyMjguNzMiIHN0eWxlPSJzdHJva2U6IzE4MTgxODtzdHJva2Utd2lkdGg6MS4wOyIvPjwvZz48IS0tbGluayBTdHVkZW50IHRvIFUxMC0tPjxnIGlkPSJsaW5rX1N0dWRlbnRfVTEwIj48cGF0aCBkPSJNNjEuMDQsMTQ1LjMxIEM3Mi4zOSwxNjUuNSA4OC4wNywxOTAuMDIgMTA2LDIwOC43NyBDMTI5LjYsMjMzLjQ2IDE1Mi42NywyMjIuNzcgMTY5LDI1Mi43NyBDMTgwLjkxLDI3NC42NSAxNjEuNzUsNDU3LjA5IDE3Nyw0NzYuNzcgQzE5NC4wMSw0OTguNzIgMjE5LjQwNTUsNTA1LjYxNzggMjQzLjk2NTUsNTA3Ljg4NzggIiBmaWxsPSJub25lIiBpZD0iU3R1ZGVudC10by1VMTAiIHN0eWxlPSJzdHJva2U6IzE4MTgxODtzdHJva2Utd2lkdGg6MS4wOyIvPjxwb2x5Z29uIGZpbGw9IiMxODE4MTgiIHBvaW50cz0iMjQ5Ljk0LDUwOC40NCwyNDEuMzQ2Myw1MDMuNjI4NywyNDQuOTYxMiw1MDcuOTc5OCwyNDAuNjEwMSw1MTEuNTk0NywyNDkuOTQsNTA4LjQ0IiBzdHlsZT0ic3Ryb2tlOiMxODE4MTg7c3Ryb2tlLXdpZHRoOjEuMDsiLz48L2c+PCEtLWxpbmsgU3R1ZGVudCB0byBVMTEtLT48ZyBpZD0ibGlua19TdHVkZW50X1UxMSI+PHBhdGggZD0iTTU2LjMxLDE0NS40MSBDODYuMjksMjI0Ljc3IDE1NC4xMyw0MDcuMiAxNjksNDcxLjc3IEMxNzIuNDIsNDg2LjYgMTY3Ljg4LDUyNy41OSAxNzcsNTM5Ljc3IEMxOTQuMDQsNTYyLjUzIDIxOC43NDc3LDU3Mi43MzEyIDI0My4wMDc3LDU3OC41OTEyICIgZmlsbD0ibm9uZSIgaWQ9IlN0dWRlbnQtdG8tVTExIiBzdHlsZT0ic3Ryb2tlOiMxODE4MTg7c3Ryb2tlLXdpZHRoOjEuMDsiLz48cG9seWdvbiBmaWxsPSIjMTgxODE4IiBwb2ludHM9IjI0OC44NCw1ODAsMjQxLjAzMDgsNTczLjk5ODYsMjQzLjk3OTgsNTc4LjgyNiwyMzkuMTUyNCw1ODEuNzc1LDI0OC44NCw1ODAiIHN0eWxlPSJzdHJva2U6IzE4MTgxODtzdHJva2Utd2lkdGg6MS4wOyIvPjwvZz48IS0tbGluayBTdHVkZW50IHRvIFUxLS0+PGcgaWQ9ImxpbmtfU3R1ZGVudF9VMSI+PHBhdGggZD0iTTY1Ljc1LDEwNC4wNyBDOTQuODEsMTAxLjAzIDE0My4zMSwxMDEuMTEgMTY5LDEyOS43NyBDMTg4LjAyLDE1MC45OSAxNTkuODEsMjM1LjA0IDE3NywyNTcuNzcgQzE4Ni42NSwyNzAuNTMgMTk1LjI5NDIsMjc2LjkxNzUgMjEwLjMxNDIsMjgyLjU2NzUgIiBmaWxsPSJub25lIiBpZD0iU3R1ZGVudC10by1VMSIgc3R5bGU9InN0cm9rZTojMTgxODE4O3N0cm9rZS13aWR0aDoxLjA7Ii8+PHBvbHlnb24gZmlsbD0iIzE4MTgxOCIgcG9pbnRzPSIyMTUuOTMsMjg0LjY4LDIwOC45MTQ2LDI3Ny43Njc0LDIxMS4yNTAxLDI4Mi45MTk2LDIwNi4wOTgsMjg1LjI1NTIsMjE1LjkzLDI4NC42OCIgc3R5bGU9InN0cm9rZTojMTgxODE4O3N0cm9rZS13aWR0aDoxLjA7Ii8+PC9nPjwhLS1saW5rIFN0dWRlbnQgdG8gVTItLT48ZyBpZD0ibGlua19TdHVkZW50X1UyIj48cGF0aCBkPSJNNjUuOTMsOTQuMDkgQzk0LjI2LDc5LjkxIDE0MS4xMSw2My4xMSAxNjksODguNzcgQzE4NC43NSwxMDMuMjcgMTYzLjg0LDE2Ny44OSAxNzcsMTg0Ljc3IEMxODYuOTMsMTk3LjUxIDE5NS44MzY3LDIwMy44NTIgMjExLjA2NjcsMjA5LjM1MiAiIGZpbGw9Im5vbmUiIGlkPSJTdHVkZW50LXRvLVUyIiBzdHlsZT0ic3Ryb2tlOiMxODE4MTg7c3Ryb2tlLXdpZHRoOjEuMDsiLz48cG9seWdvbiBmaWxsPSIjMTgxODE4IiBwb2ludHM9IjIxNi43MSwyMTEuMzksMjA5LjYwMzcsMjA0LjU3MDksMjEyLjAwNzMsMjA5LjY5MTcsMjA2Ljg4NjQsMjEyLjA5NTMsMjE2LjcxLDIxMS4zOSIgc3R5bGU9InN0cm9rZTojMTgxODE4O3N0cm9rZS13aWR0aDoxLjA7Ii8+PC9nPjwhLS1saW5rIFN0dWRlbnQgdG8gVTMtLT48ZyBpZD0ibGlua19TdHVkZW50X1UzIj48cGF0aCBkPSJNNjUuNSw3Ny41IEM3Ni40MSw2NS44OCA5MC40Miw1My45MyAxMDYsNDcuNzcgQzEzMi4wNCwzNy40NyAxNDIuODcsMzcuNyAxNjksNDcuNzcgQzIxNi42NSw2Ni4xNCAyNTMuMjg5OCwxMDkuMzM1MyAyNzEuMjk5OCwxMzMuNTU1MyAiIGZpbGw9Im5vbmUiIGlkPSJTdHVkZW50LXRvLVUzIiBzdHlsZT0ic3Ryb2tlOiMxODE4MTg7c3Ryb2tlLXdpZHRoOjEuMDsiLz48cG9seWdvbiBmaWxsPSIjMTgxODE4IiBwb2ludHM9IjI3NC44OCwxMzguMzcsMjcyLjcxOTUsMTI4Ljc2MSwyNzEuODk2NSwxMzQuMzU3NywyNjYuMjk5OCwxMzMuNTM0NywyNzQuODgsMTM4LjM3IiBzdHlsZT0ic3Ryb2tlOiMxODE4MTg7c3Ryb2tlLXdpZHRoOjEuMDsiLz48L2c+PCEtLWxpbmsgU3R1ZGVudCB0byBVMTItLT48ZyBpZD0ibGlua19TdHVkZW50X1UxMiI+PHBhdGggZD0iTTY1Ljc0LDExOC4xNSBDOTUuNzYsMTMyLjY4IDE0Ni4yNiwxNjIuMTkgMTY5LDIwNC43NyBDMTgyLjQyLDIyOS45MSAxNTkuNzIsMzEwLjExIDE3NywzMzIuNzcgQzE4Ni44LDM0NS42MiAxOTUuNjU4MywzNTEuOTg3NiAyMTAuODc4MywzNTcuNDk3NiAiIGZpbGw9Im5vbmUiIGlkPSJTdHVkZW50LXRvLVUxMiIgc3R5bGU9InN0cm9rZTojMTgxODE4O3N0cm9rZS13aWR0aDoxLjA7Ii8+PHBvbHlnb24gZmlsbD0iIzE4MTgxOCIgcG9pbnRzPSIyMTYuNTIsMzU5LjU0LDIwOS40MTkxLDM1Mi43MTUzLDIxMS44MTg2LDM1Ny44MzgsMjA2LjY5NTksMzYwLjIzNzUsMjE2LjUyLDM1OS41NCIgc3R5bGU9InN0cm9rZTojMTgxODE4O3N0cm9rZS13aWR0aDoxLjA7Ii8+PC9nPjwhLS1saW5rIEluc3RydWN0b3IgdG8gVTEwLS0+PGcgaWQ9ImxpbmtfSW5zdHJ1Y3Rvcl9VMTAiPjxwYXRoIGQ9Ik03Ni4wMyw0OTUuNTggQzg1LjA4LDQ4OC43IDk1LjMzLDQ4Mi40NCAxMDYsNDc4Ljc3IEMxMzIuNDcsNDY5LjY2IDE0MS4yMiw0NzUuMjQgMTY5LDQ3OC43NyBDMjAwLjM3LDQ4Mi43NiAyMjkuNjU3Miw0OTAuNzg3MyAyNTIuOTI3Miw0OTguMTE3MyAiIGZpbGw9Im5vbmUiIGlkPSJJbnN0cnVjdG9yLXRvLVUxMCIgc3R5bGU9InN0cm9rZTojMTgxODE4O3N0cm9rZS13aWR0aDoxLjA7Ii8+PHBvbHlnb24gZmlsbD0iIzE4MTgxOCIgcG9pbnRzPSIyNTguNjUsNDk5LjkyLDI1MS4yNjc2LDQ5My40MDA4LDI1My44ODEsNDk4LjQxNzgsMjQ4Ljg2NCw1MDEuMDMxMiwyNTguNjUsNDk5LjkyIiBzdHlsZT0ic3Ryb2tlOiMxODE4MTg7c3Ryb2tlLXdpZHRoOjEuMDsiLz48L2c+PCEtLWxpbmsgSW5zdHJ1Y3RvciB0byBVMTEtLT48ZyBpZD0ibGlua19JbnN0cnVjdG9yX1UxMSI+PHBhdGggZD0iTTc2LjE0LDU2MS42NyBDODUuMTksNTY4LjU1IDk1LjQxLDU3NC44OSAxMDYsNTc4Ljc3IEMxNTIuNTgsNTk1LjgzIDIwNC42MjcxLDU5NC45MTk1IDI0MS43NTcxLDU5MS4zNzk1ICIgZmlsbD0ibm9uZSIgaWQ9Ikluc3RydWN0b3ItdG8tVTExIiBzdHlsZT0ic3Ryb2tlOiMxODE4MTg7c3Ryb2tlLXdpZHRoOjEuMDsiLz48cG9seWdvbiBmaWxsPSIjMTgxODE4IiBwb2ludHM9IjI0Ny43Myw1OTAuODEsMjM4LjM5MSw1ODcuNjgyMiwyNDIuNzUyNiw1OTEuMjg0NiwyMzkuMTUwMyw1OTUuNjQ2MSwyNDcuNzMsNTkwLjgxIiBzdHlsZT0ic3Ryb2tlOiMxODE4MTg7c3Ryb2tlLXdpZHRoOjEuMDsiLz48L2c+PCEtLWxpbmsgSW5zdHJ1Y3RvciB0byBVMS0tPjxnIGlkPSJsaW5rX0luc3RydWN0b3JfVTEiPjxwYXRoIGQ9Ik00NC44NCw0OTEuMDMgQzUwLjk4LDQyMS4xOCA2OC4wNywyNzYuMDggMTA2LDI0NS43NyBDMTI3Ljg3LDIyOC4yOSAxNDQuMzEsMjMyLjU2IDE2OSwyNDUuNzcgQzE3NC42NSwyNDguOCAxNzEuOTQsMjUzLjg0IDE3NywyNTcuNzcgQzE5MC44OSwyNjguNTYgMjAyLjQwNDYsMjc0LjQ5MzQgMjE4Ljk2NDYsMjgwLjE3MzQgIiBmaWxsPSJub25lIiBpZD0iSW5zdHJ1Y3Rvci10by1VMSIgc3R5bGU9InN0cm9rZTojMTgxODE4O3N0cm9rZS13aWR0aDoxLjA7Ii8+PHBvbHlnb24gZmlsbD0iIzE4MTgxOCIgcG9pbnRzPSIyMjQuNjQsMjgyLjEyLDIxNy40MjQ2LDI3NS40MTY0LDIxOS45MTA1LDI4MC40OTc4LDIxNC44MjkxLDI4Mi45ODM3LDIyNC42NCwyODIuMTIiIHN0eWxlPSJzdHJva2U6IzE4MTgxODtzdHJva2Utd2lkdGg6MS4wOyIvPjwvZz48IS0tbGluayBJbnN0cnVjdG9yIHRvIFU0LS0+PGcgaWQ9ImxpbmtfSW5zdHJ1Y3Rvcl9VNCI+PHBhdGggZD0iTTYzLjM0LDQ5MC44OCBDNzQuMDQsNDc1LjY0IDg4LjQ4LDQ1OS42IDEwNiw0NTAuNzcgQzE0MC4xNyw0MzMuNTQgMTc2LjgzNzgsNDMwLjQ4NDQgMjExLjkzNzgsNDMyLjI3NDQgIiBmaWxsPSJub25lIiBpZD0iSW5zdHJ1Y3Rvci10by1VNCIgc3R5bGU9InN0cm9rZTojMTgxODE4O3N0cm9rZS13aWR0aDoxLjA7Ii8+PHBvbHlnb24gZmlsbD0iIzE4MTgxOCIgcG9pbnRzPSIyMTcuOTMsNDMyLjU4LDIwOS4xNDU0LDQyOC4xMjY4LDIxMi45MzY1LDQzMi4zMjUzLDIwOC43MzgsNDM2LjExNjQsMjE3LjkzLDQzMi41OCIgc3R5bGU9InN0cm9rZTojMTgxODE4O3N0cm9rZS13aWR0aDoxLjA7Ii8+PC9nPjwhLS1saW5rIEluc3RydWN0b3IgdG8gVTUtLT48ZyBpZD0ibGlua19JbnN0cnVjdG9yX1U1Ij48cGF0aCBkPSJNNDkuNzEsNTY2LjM3IEM1OC4xOCw1OTguMTcgNzQuOTEsNjQyLjYyIDEwNiw2NjguNzcgQzEzNy45Niw2OTUuNjYgMTc3LjY3MzQsNzA2LjU2MDkgMjE0Ljg4MzQsNzExLjU2MDkgIiBmaWxsPSJub25lIiBpZD0iSW5zdHJ1Y3Rvci10by1VNSIgc3R5bGU9InN0cm9rZTojMTgxODE4O3N0cm9rZS13aWR0aDoxLjA7Ii8+PHBvbHlnb24gZmlsbD0iIzE4MTgxOCIgcG9pbnRzPSIyMjAuODMsNzEyLjM2LDIxMi40NDI5LDcwNy4xOTcxLDIxNS44NzQ1LDcxMS42OTQxLDIxMS4zNzc1LDcxNS4xMjU4LDIyMC44Myw3MTIuMzYiIHN0eWxlPSJzdHJva2U6IzE4MTgxODtzdHJva2Utd2lkdGg6MS4wOyIvPjwvZz48IS0tbGluayBJbnN0cnVjdG9yIHRvIFU2LS0+PGcgaWQ9ImxpbmtfSW5zdHJ1Y3Rvcl9VNiI+PHBhdGggZD0iTTUyLjk2LDU2Ni41NCBDNjIuNTMsNTkyLjE3IDc5LjE5LDYyNC4zIDEwNiw2NDAuNzcgQzE0NC4xOCw2NjQuMjMgMTkwLjA4MjYsNjY0Ljg1MzQgMjI4LjE2MjYsNjYwLjI5MzQgIiBmaWxsPSJub25lIiBpZD0iSW5zdHJ1Y3Rvci10by1VNiIgc3R5bGU9InN0cm9rZTojMTgxODE4O3N0cm9rZS13aWR0aDoxLjA7Ii8+PHBvbHlnb24gZmlsbD0iIzE4MTgxOCIgcG9pbnRzPSIyMzQuMTIsNjU5LjU4LDIyNC43MDgyLDY1Ni42Nzg1LDIyOS4xNTU1LDY2MC4xNzQ1LDIyNS42NTk0LDY2NC42MjE3LDIzNC4xMiw2NTkuNTgiIHN0eWxlPSJzdHJva2U6IzE4MTgxODtzdHJva2Utd2lkdGg6MS4wOyIvPjwvZz48IS0tbGluayBJbnN0cnVjdG9yIHRvIFU3LS0+PGcgaWQ9ImxpbmtfSW5zdHJ1Y3Rvcl9VNyI+PHBhdGggZD0iTTQ3LjIxLDU2Ni4zMiBDNTQuNCw2MDUuOTMgNzAuNzIsNjY4LjI0IDEwNiw3MDkuNzcgQzEzNy4xMiw3NDYuNDEgMTgzLjczMjcsNzYzLjI4OTIgMjIzLjg1MjcsNzcyLjE5OTIgIiBmaWxsPSJub25lIiBpZD0iSW5zdHJ1Y3Rvci10by1VNyIgc3R5bGU9InN0cm9rZTojMTgxODE4O3N0cm9rZS13aWR0aDoxLjA7Ii8+PHBvbHlnb24gZmlsbD0iIzE4MTgxOCIgcG9pbnRzPSIyMjkuNzEsNzczLjUsMjIxLjc5MTMsNzY3LjY0MzksMjI0LjgyODksNzcyLjQxNiwyMjAuMDU2OSw3NzUuNDUzNiwyMjkuNzEsNzczLjUiIHN0eWxlPSJzdHJva2U6IzE4MTgxODtzdHJva2Utd2lkdGg6MS4wOyIvPjwvZz48IS0tbGluayBJbnN0cnVjdG9yIHRvIFUxMi0tPjxnIGlkPSJsaW5rX0luc3RydWN0b3JfVTEyIj48cGF0aCBkPSJNNDcuNzgsNDkxLjIxIEM1Ny4xOCw0MzUuNjcgNzcuNjIsMzM1LjkxIDEwNiwzMTQuNzcgQzEyOC40NiwyOTguMDUgMTQ1LjUyLDI5OS41MSAxNjksMzE0Ljc3IEMxNzYuMzQsMzE5LjU0IDE3MC41NCwzMjYuODYgMTc3LDMzMi43NyBDMTg5LjU3LDM0NC4yOCAyMDAuMjEwNCwzNTAuMjk1NyAyMTYuMzMwNCwzNTUuNzg1NyAiIGZpbGw9Im5vbmUiIGlkPSJJbnN0cnVjdG9yLXRvLVUxMiIgc3R5bGU9InN0cm9rZTojMTgxODE4O3N0cm9rZS13aWR0aDoxLjA7Ii8+PHBvbHlnb24gZmlsbD0iIzE4MTgxOCIgcG9pbnRzPSIyMjIuMDEsMzU3LjcyLDIxNC43ODAxLDM1MS4wMzIxLDIxNy4yNzcsMzU2LjEwODEsMjEyLjIwMSwzNTguNjA0OSwyMjIuMDEsMzU3LjcyIiBzdHlsZT0ic3Ryb2tlOiMxODE4MTg7c3Ryb2tlLXdpZHRoOjEuMDsiLz48L2c+PCEtLWxpbmsgQWRtaW4gdG8gVTEwLS0+PGcgaWQ9ImxpbmtfQWRtaW5fVTEwIj48cGF0aCBkPSJNNDYuODYsNzQ4LjA1IEM1NS41OCw2ODYuNTQgNzUuODIsNTY4LjY3IDEwNiw1NDAuNzcgQzE0NS40MSw1MDQuMzQgMjA1LjQyMzMsNTAxLjc5MDkgMjQ1LjMyMzMsNTA0LjQ1MDkgIiBmaWxsPSJub25lIiBpZD0iQWRtaW4tdG8tVTEwIiBzdHlsZT0ic3Ryb2tlOiMxODE4MTg7c3Ryb2tlLXdpZHRoOjEuMDsiLz48cG9seWdvbiBmaWxsPSIjMTgxODE4IiBwb2ludHM9IjI1MS4zMSw1MDQuODUsMjQyLjU5Niw1MDAuMjYwMiwyNDYuMzIxMSw1MDQuNTE3NCwyNDIuMDYzOSw1MDguMjQyNSwyNTEuMzEsNTA0Ljg1IiBzdHlsZT0ic3Ryb2tlOiMxODE4MTg7c3Ryb2tlLXdpZHRoOjEuMDsiLz48L2c+PCEtLWxpbmsgQWRtaW4gdG8gVTExLS0+PGcgaWQ9ImxpbmtfQWRtaW5fVTExIj48cGF0aCBkPSJNNTkuMDIsNzY5LjIxIEM5MC4wMyw3MzguNzIgMTUzLjk0LDY3NC4zIDE2OSw2NDYuNzcgQzE3NS42Miw2MzQuNjYgMTY3LjM0LDYyNi42MiAxNzcsNjE2Ljc3IEMxOTQuNzYsNTk4LjY3IDIxNi4zODg0LDU5MS43OTUxIDIzOS4yMjg0LDU4OC41ODUxICIgZmlsbD0ibm9uZSIgaWQ9IkFkbWluLXRvLVUxMSIgc3R5bGU9InN0cm9rZTojMTgxODE4O3N0cm9rZS13aWR0aDoxLjA7Ii8+PHBvbHlnb24gZmlsbD0iIzE4MTgxOCIgcG9pbnRzPSIyNDUuMTcsNTg3Ljc1LDIzNS43MDA5LDU4NS4wNDE1LDI0MC4yMTg3LDU4OC40NDU5LDIzNi44MTQzLDU5Mi45NjM2LDI0NS4xNyw1ODcuNzUiIHN0eWxlPSJzdHJva2U6IzE4MTgxODtzdHJva2Utd2lkdGg6MS4wOyIvPjwvZz48IS0tbGluayBBZG1pbiB0byBVNS0tPjxnIGlkPSJsaW5rX0FkbWluX1U1Ij48cGF0aCBkPSJNNTkuMTEsNzk3LjI4IEM4NS45MSw4MTMuNzQgMTM3LjkzLDgzOS4xNSAxNjksODExLjc3IEMxOTAuMTgsNzkzLjExIDE1OC44MSw3NzAuMzUgMTc3LDc0OC43NyBDMTg4Ljg4LDczNC42OCAyMDAuNzk0MSw3MjguMDQxNSAyMTguNDY0MSw3MjMuMzExNSAiIGZpbGw9Im5vbmUiIGlkPSJBZG1pbi10by1VNSIgc3R5bGU9InN0cm9rZTojMTgxODE4O3N0cm9rZS13aWR0aDoxLjA7Ii8+PHBvbHlnb24gZmlsbD0iIzE4MTgxOCIgcG9pbnRzPSIyMjQuMjYsNzIxLjc2LDIxNC41MzE4LDcyMC4yMjMzLDIxOS40MzAxLDcyMy4wNTI5LDIxNi42MDA0LDcyNy45NTEyLDIyNC4yNiw3MjEuNzYiIHN0eWxlPSJzdHJva2U6IzE4MTgxODtzdHJva2Utd2lkdGg6MS4wOyIvPjwvZz48IS0tbGluayBBZG1pbiB0byBVNi0tPjxnIGlkPSJsaW5rX0FkbWluX1U2Ij48cGF0aCBkPSJNNTkuMTEsNzgzLjQzIEM4Ni44OSw3NzguNjcgMTQxLjQ1LDc2NS4xMiAxNjksNzI5Ljc3IEMxODIuMDMsNzEzLjA2IDE2My4wMSw2OTguNjggMTc3LDY4Mi43NyBDMTg5LjI0LDY2OC44NiAyMDEuMzYyOCw2NjIuMjY2NiAyMTkuMDkyOCw2NTcuNTM2NiAiIGZpbGw9Im5vbmUiIGlkPSJBZG1pbi10by1VNiIgc3R5bGU9InN0cm9rZTojMTgxODE4O3N0cm9rZS13aWR0aDoxLjA7Ii8+PHBvbHlnb24gZmlsbD0iIzE4MTgxOCIgcG9pbnRzPSIyMjQuODksNjU1Ljk5LDIxNS4xNjMxLDY1NC40NDUsMjIwLjA1OSw2NTcuMjc4OCwyMTcuMjI1Miw2NjIuMTc0NywyMjQuODksNjU1Ljk5IiBzdHlsZT0ic3Ryb2tlOiMxODE4MTg7c3Ryb2tlLXdpZHRoOjEuMDsiLz48L2c+PCEtLWxpbmsgQWRtaW4gdG8gVTctLT48ZyBpZD0ibGlua19BZG1pbl9VNyI+PHBhdGggZD0iTTU1LjAzLDgyMy4zMyBDNjUuMTEsODQ2LjEyIDgxLjU0LDg3My4zMSAxMDYsODg2Ljc3IEMxMzAuNTMsOTAwLjI3IDE0OC4xNCw5MDUuNDUgMTY5LDg4Ni43NyBDMTgxLDg3Ni4wNCAxNjYuNzIsODI3LjE2IDE3Nyw4MTQuNzcgQzE4OC43Nyw4MDAuNTkgMjAwLjY1Myw3OTMuOTE3NiAyMTguMzMzLDc4OS4xOTc2ICIgZmlsbD0ibm9uZSIgaWQ9IkFkbWluLXRvLVU3IiBzdHlsZT0ic3Ryb2tlOiMxODE4MTg7c3Ryb2tlLXdpZHRoOjEuMDsiLz48cG9seWdvbiBmaWxsPSIjMTgxODE4IiBwb2ludHM9IjIyNC4xMyw3ODcuNjUsMjE0LjQwMjgsNzg2LjEwNjgsMjE5LjI5OTIsNzg4LjkzOTcsMjE2LjQ2NjMsNzkzLjgzNjEsMjI0LjEzLDc4Ny42NSIgc3R5bGU9InN0cm9rZTojMTgxODE4O3N0cm9rZS13aWR0aDoxLjA7Ii8+PC9nPjwhLS1saW5rIEFkbWluIHRvIFU4LS0+PGcgaWQ9ImxpbmtfQWRtaW5fVTgiPjxwYXRoIGQ9Ik01MC41Niw4MjMuMzkgQzU5LjI4LDg1Mi4wNSA3NS45MSw4ODkuNTggMTA2LDkwNy43NyBDMTYwLjU1LDk0MC43NiAyMzAuODg3OCw4OTIuNzc5MSAyNjMuNzY3OCw4NjUuOTk5MSAiIGZpbGw9Im5vbmUiIGlkPSJBZG1pbi10by1VOCIgc3R5bGU9InN0cm9rZTojMTgxODE4O3N0cm9rZS13aWR0aDoxLjA7Ii8+PHBvbHlnb24gZmlsbD0iIzE4MTgxOCIgcG9pbnRzPSIyNjguNDIsODYyLjIxLDI1OC45MTU3LDg2NC43OTIyLDI2NC41NDMyLDg2NS4zNjc2LDI2My45Njc4LDg3MC45OTUxLDI2OC40Miw4NjIuMjEiIHN0eWxlPSJzdHJva2U6IzE4MTgxODtzdHJva2Utd2lkdGg6MS4wOyIvPjwvZz48IS0tbGluayBBZG1pbiB0byBVMTItLT48ZyBpZD0ibGlua19BZG1pbl9VMTIiPjxwYXRoIGQ9Ik00OC4zNCw3NDguMTIgQzYxLjY5LDY3MC4wNSA5Mi41NCw0OTUuNzYgMTA2LDQ3MS43NyBDMTI3LjA5LDQzNC4yIDEzOS45NCw0MjcuNzUgMTc3LDQwNS43NyBDMTkyLjg5LDM5Ni4zNCAyMDUuODczMywzOTAuODIxOSAyMjMuMTkzMywzODUuMzAxOSAiIGZpbGw9Im5vbmUiIGlkPSJBZG1pbi10by1VMTIiIHN0eWxlPSJzdHJva2U6IzE4MTgxODtzdHJva2Utd2lkdGg6MS4wOyIvPjxwb2x5Z29uIGZpbGw9IiMxODE4MTgiIHBvaW50cz0iMjI4LjkxLDM4My40OCwyMTkuMTIwMywzODIuNDAxOCwyMjQuMTQ2MSwzODQuOTk4MywyMjEuNTQ5NiwzOTAuMDI0LDIyOC45MSwzODMuNDgiIHN0eWxlPSJzdHJva2U6IzE4MTgxODtzdHJva2Utd2lkdGg6MS4wOyIvPjwvZz48IS0tbGluayBVMiB0byBVMTAtLT48ZyBpZD0ibGlua19VMl9VMTAiPjxwYXRoIGQ9Ik0yMDMuNTcsMjIwLjAxIEMxNzcuMzQsMjIzLjkzIDE1MC44LDIzMy41IDEzNCwyNTQuMjcgQzEwMi4zMywyOTMuNDMgMTQyLjg3LDQzOS43NSAxNzcsNDc2Ljc3IEMxOTUuNTgsNDk2LjkzIDIyMC4xNjEyLDUwMy45MjgyIDI0NC4xOTEyLDUwNi43NTgyICIgZmlsbD0ibm9uZSIgaWQ9IlUyLXRvLVUxMCIgc3R5bGU9InN0cm9rZTojMTgxODE4O3N0cm9rZS13aWR0aDoxLjA7c3Ryb2tlLWRhc2hhcnJheTo3LjAsNy4wOyIvPjxwb2x5Z29uIGZpbGw9IiMxODE4MTgiIHBvaW50cz0iMjUwLjE1LDUwNy40NiwyNDEuNjc5Niw1MDIuNDM0OCwyNDUuMTg0Myw1MDYuODc1MiwyNDAuNzQzOSw1MTAuMzc5OSwyNTAuMTUsNTA3LjQ2IiBzdHlsZT0ic3Ryb2tlOiMxODE4MTg7c3Ryb2tlLXdpZHRoOjEuMDsiLz48dGV4dCBmaWxsPSIjMDAwMDAwIiBmb250LWZhbWlseT0ic2Fucy1zZXJpZiIgZm9udC1zaXplPSIxMyIgbGVuZ3RoQWRqdXN0PSJzcGFjaW5nIiB0ZXh0TGVuZ3RoPSI2MSIgeD0iMTA3IiB5PSIyNjcuNTU5MSI+JiMxNzE7aW5jbHVkZSYjMTg3OzwvdGV4dD48L2c+PCEtLWxpbmsgVTUgdG8gVTEwLS0+PGcgaWQ9ImxpbmtfVTVfVTEwIj48cGF0aCBkPSJNMjI2LjkzLDcwOC41IEMyMDkuMDIsNzAzLjcyIDE5MC41Miw2OTUuODEgMTc3LDY4Mi43NyBDMTMwLDYzNy40NCA5My4wOSw1OTMuMTggMTM0LDU0Mi4yNyBDMTYxLjUxLDUwOC4wNCAyMDkuMzQ1LDUwMy41MjYyIDI0NC45OTUsNTA0Ljk3NjIgIiBmaWxsPSJub25lIiBpZD0iVTUtdG8tVTEwIiBzdHlsZT0ic3Ryb2tlOiMxODE4MTg7c3Ryb2tlLXdpZHRoOjEuMDtzdHJva2UtZGFzaGFycmF5OjcuMCw3LjA7Ii8+PHBvbHlnb24gZmlsbD0iIzE4MTgxOCIgcG9pbnRzPSIyNTAuOTksNTA1LjIyLDI0Mi4xNiw1MDAuODU3NSwyNDUuOTk0MSw1MDUuMDE2OCwyNDEuODM0OSw1MDguODUwOSwyNTAuOTksNTA1LjIyIiBzdHlsZT0ic3Ryb2tlOiMxODE4MTg7c3Ryb2tlLXdpZHRoOjEuMDsiLz48dGV4dCBmaWxsPSIjMDAwMDAwIiBmb250LWZhbWlseT0ic2Fucy1zZXJpZiIgZm9udC1zaXplPSIxMyIgbGVuZ3RoQWRqdXN0PSJzcGFjaW5nIiB0ZXh0TGVuZ3RoPSI2MSIgeD0iMTA3IiB5PSI1NTUuNTU5MSI+JiMxNzE7aW5jbHVkZSYjMTg3OzwvdGV4dD48L2c+PCEtLWxpbmsgVTYgdG8gVTEwLS0+PGcgaWQ9ImxpbmtfVTZfVTEwIj48cGF0aCBkPSJNMjMyLjUxLDY0MC4zNCBDMTc3LjgxLDYyOC4yMSAxMDQuNyw2MDMuNjUgMTM0LDU2Mi4yNyBDMTYwLjE5LDUyNS4yOSAyMDguMTI4Nyw1MTQuMjc2MiAyNDQuMTg4Nyw1MTAuNzM2MiAiIGZpbGw9Im5vbmUiIGlkPSJVNi10by1VMTAiIHN0eWxlPSJzdHJva2U6IzE4MTgxODtzdHJva2Utd2lkdGg6MS4wO3N0cm9rZS1kYXNoYXJyYXk6Ny4wLDcuMDsiLz48cG9seWdvbiBmaWxsPSIjMTgxODE4IiBwb2ludHM9IjI1MC4xNiw1MTAuMTUsMjQwLjgxMjMsNTA3LjA0ODQsMjQ1LjE4MzksNTEwLjYzODUsMjQxLjU5MzksNTE1LjAxMDIsMjUwLjE2LDUxMC4xNSIgc3R5bGU9InN0cm9rZTojMTgxODE4O3N0cm9rZS13aWR0aDoxLjA7Ii8+PHRleHQgZmlsbD0iIzAwMDAwMCIgZm9udC1mYW1pbHk9InNhbnMtc2VyaWYiIGZvbnQtc2l6ZT0iMTMiIGxlbmd0aEFkanVzdD0ic3BhY2luZyIgdGV4dExlbmd0aD0iNjEiIHg9IjEwNyIgeT0iNTc1LjU1OTEiPiYjMTcxO2luY2x1ZGUmIzE4Nzs8L3RleHQ+PC9nPjwhLS1saW5rIFU3IHRvIFUxMC0tPjxnIGlkPSJsaW5rX1U3X1UxMCI+PHBhdGggZD0iTTIyNy41NSw3NzQuMjIgQzIwOS41Nyw3NjkuNDIgMTkwLjg4LDc2MS41OCAxNzcsNzQ4Ljc3IEMxMzguNTgsNzEzLjMxIDE0My43Myw2OTAuNjQgMTM0LDYzOS4yNyBDMTI2LjE2LDU5Ny44NyAxNDQuOTksNTgyLjE4IDE3Nyw1NTQuNzcgQzE5OS43OCw1MzUuMjcgMjI2LjI3MjgsNTI0LjczOTcgMjQ5Ljc4MjgsNTE3LjgzOTcgIiBmaWxsPSJub25lIiBpZD0iVTctdG8tVTEwIiBzdHlsZT0ic3Ryb2tlOiMxODE4MTg7c3Ryb2tlLXdpZHRoOjEuMDtzdHJva2UtZGFzaGFycmF5OjcuMCw3LjA7Ii8+PHBvbHlnb24gZmlsbD0iIzE4MTgxOCIgcG9pbnRzPSIyNTUuNTQsNTE2LjE1LDI0NS43Nzc4LDUxNC44NDY0LDI1MC43NDI0LDUxNy41NTgxLDI0OC4wMzA3LDUyMi41MjI2LDI1NS41NCw1MTYuMTUiIHN0eWxlPSJzdHJva2U6IzE4MTgxODtzdHJva2Utd2lkdGg6MS4wOyIvPjx0ZXh0IGZpbGw9IiMwMDAwMDAiIGZvbnQtZmFtaWx5PSJzYW5zLXNlcmlmIiBmb250LXNpemU9IjEzIiBsZW5ndGhBZGp1c3Q9InNwYWNpbmciIHRleHRMZW5ndGg9IjYxIiB4PSIxMDciIHk9IjYzNy41NTkxIj4mIzE3MTtpbmNsdWRlJiMxODc7PC90ZXh0PjwvZz48IS0tbGluayBVMTEgdG8gVTEwLS0+PGcgaWQ9ImxpbmtfVTExX1UxMCI+PHBhdGggZD0iTTI4Niw1NzIuMDEgQzI4Niw1NTcuOTkgMjg2LDU0Mi4zOSAyODYsNTI4LjQyICIgZmlsbD0ibm9uZSIgaWQ9IlUxMS10by1VMTAiIHN0eWxlPSJzdHJva2U6IzE4MTgxODtzdHJva2Utd2lkdGg6MS4wO3N0cm9rZS1kYXNoYXJyYXk6Ny4wLDcuMDsiLz48cG9seWdvbiBmaWxsPSIjMTgxODE4IiBwb2ludHM9IjI4Niw1MjIuNDIsMjgyLDUzMS40MiwyODYsNTI3LjQyLDI5MCw1MzEuNDIsMjg2LDUyMi40MiIgc3R5bGU9InN0cm9rZTojMTgxODE4O3N0cm9rZS13aWR0aDoxLjA7Ii8+PHRleHQgZmlsbD0iIzAwMDAwMCIgZm9udC1mYW1pbHk9InNhbnMtc2VyaWYiIGZvbnQtc2l6ZT0iMTMiIGxlbmd0aEFkanVzdD0ic3BhY2luZyIgdGV4dExlbmd0aD0iNjEiIHg9IjI0NSIgeT0iNTUzLjA1OTEiPiYjMTcxO2luY2x1ZGUmIzE4Nzs8L3RleHQ+PC9nPjwhLS1saW5rIFUxMiB0byBVMTAtLT48ZyBpZD0ibGlua19VMTJfVTEwIj48cGF0aCBkPSJNMjIzLjIyLDM4MiBDMjA2Ljk2LDM4Ny4zNCAxOTAuMjksMzk0Ljk1IDE3Nyw0MDUuNzcgQzkxLjc2LDQ3NS4xNSAxMDguNTYsNDY3LjQ3IDEzNCw0OTUuMjcgQzE2NC40MSw1MjguNSAyMTUuNTc5OCw1MjQuNzQyOSAyNTAuNDc5OCw1MTcuNjYyOSAiIGZpbGw9Im5vbmUiIGlkPSJVMTItdG8tVTEwIiBzdHlsZT0ic3Ryb2tlOiMxODE4MTg7c3Ryb2tlLXdpZHRoOjEuMDtzdHJva2UtZGFzaGFycmF5OjcuMCw3LjA7Ii8+PHBvbHlnb24gZmlsbD0iIzE4MTgxOCIgcG9pbnRzPSIyNTYuMzYsNTE2LjQ3LDI0Ni43NDQ0LDUxNC4zMzkyLDI1MS40NTk4LDUxNy40NjQxLDI0OC4zMzQ5LDUyMi4xNzk1LDI1Ni4zNiw1MTYuNDciIHN0eWxlPSJzdHJva2U6IzE4MTgxODtzdHJva2Utd2lkdGg6MS4wOyIvPjx0ZXh0IGZpbGw9IiMwMDAwMDAiIGZvbnQtZmFtaWx5PSJzYW5zLXNlcmlmIiBmb250LXNpemU9IjEzIiBsZW5ndGhBZGp1c3Q9InNwYWNpbmciIHRleHRMZW5ndGg9IjYxIiB4PSIxMDciIHk9IjQ5My41NTkxIj4mIzE3MTtpbmNsdWRlJiMxODc7PC90ZXh0PjwvZz48IS0tcmV2ZXJzZSBsaW5rIFUxMCB0byBVOS0tPjxnIGlkPSJsaW5rX1UxMF9VOSI+PHBhdGggZD0iTTMzNC40MzYyLDQ5Ni45MjE0IEMzNTEuNDg2Miw0OTEuOTcxNCAzNTUuMiw0ODguOTkgMzcxLDQ3Ni43NyBDNDU0LjMzLDQxMi4zIDUxMy41MywyOTQuOTcgNTMxLjk1LDI1NS4yOSAiIGZpbGw9Im5vbmUiIGlkPSJVMTAtYmFja3RvLVU5IiBzdHlsZT0ic3Ryb2tlOiMxODE4MTg7c3Ryb2tlLXdpZHRoOjEuMDsiLz48cG9seWdvbiBmaWxsPSJub25lIiBwb2ludHM9IjMxNy4xNSw1MDEuOTQsMzM2LjEwOTEsNTAyLjY4MzUsMzMyLjc2MzQsNDkxLjE1OTMsMzE3LjE1LDUwMS45NCIgc3R5bGU9InN0cm9rZTojMTgxODE4O3N0cm9rZS13aWR0aDoxLjA7Ii8+PHRleHQgZmlsbD0iIzAwMDAwMCIgZm9udC1mYW1pbHk9InNhbnMtc2VyaWYiIGZvbnQtc2l6ZT0iMTMiIGxlbmd0aEFkanVzdD0ic3BhY2luZyIgdGV4dExlbmd0aD0iNTUiIHg9IjQwMiIgeT0iMzg0LjA1OTEiPiYjMTcxO2V4dGVuZCYjMTg3OzwvdGV4dD48L2c+PCEtLVNSQz1bVFBESEp1Q201OE5WLW9ra1V5Uzg2cDNER2E5bU1LbXM3cFJuN1U0RWN4M01qMk1RZ0ZfVG1mZjl3VTI5U3l4N3dHcU5SWWV5S2VRbU5zU2x3VkRja3VRb0FRR2FmQzZaMGlMMXFGZlRHS0s1YmVmb0hhWFFBWXhXZURlQWNKQmdZS2Fic2t4TTY2YnJlZmhqN1lmT3RJM0NUZkhIczc1VURKWTNSbUJ3UVlNTVhUSlA3Y2lnNU9lUDUxQm9VcGxTeWZnb1MtQlZFSDVsYlNieUV0a2ItMGFQUnVLTTZNVEEzc2owY3BrcVJvVWc4OU1JcmtvYUFOZDZXWWpyNnI1S1FGQXZkVlVIc3hBbWdLbldlVDJDVElQMmN5V19nWjRIc1NHWkRaV1lPZmxPNVFvZTROQTltZW9ubDBnaWNVMURDdlpNM3lXbDhNUXJ1N2I5am1uQndXdE9zWHpmTW1Rc2Q4X1dXOTNfQi1Ub1c2RnZoa0t1MnlTOTdJVG9kRFhqclpGcjctemJkQTdvWG9lU1ljV2V1ZzVPTVdzd0ZXX1dqZy02MXJZakEyaVJfS3dJWEVKWFgxekQtRjY0eF9qSm1TSjlmQkRNRnZ3ZHp6cjctQU5fYm9mOV9XMDBdLS0+PC9nPjwvc3ZnPg==;" vertex="1" parent="1">
            <mxGeometry x="-520" y="330" width="770" height="1191.49" as="geometry" />
          </mxCell>
        </UserObject>
      </root>
    </mxGraphModel>
  </diagram>
</mxfile>
